<svg width="164" height="30" viewBox="0 0 164 61" fill="none" xmlns="http://www.w3.org/2000/svg">
<path fill-rule="evenodd" clip-rule="evenodd" d="M86.5275 2.68899C86.6597 1.5079 85.8223 0.441392 84.6413 0.30918C83.4602 0.168154 82.3937 1.01431 82.2614 2.1954C82.1028 3.54397 82.3231 5.15695 82.6052 6.81401C83.3896 7.05199 84.1477 7.39574 84.8528 7.80119C85.6108 6.01192 86.3512 4.24028 86.5275 2.68899ZM94.8216 7.8717C94.3544 6.77875 93.0852 6.28516 91.9922 6.75231C90.5555 7.37811 89.0659 8.60328 87.5675 9.8637C88.1317 10.419 88.6605 11.0448 89.11 11.7235C90.8111 11.5119 92.4418 11.2563 93.7022 10.7099C94.7951 10.2251 95.2975 8.95584 94.8216 7.8717ZM91.199 2.10726C90.247 1.40213 88.8985 1.59604 88.1933 2.54797C87.118 3.99349 86.3953 6.15295 85.6108 8.25952C85.8752 8.43581 86.122 8.61209 86.36 8.79719C86.5363 8.93821 86.7214 9.08805 86.9065 9.23789C88.7046 7.88052 90.5732 6.5584 91.6485 5.11288C92.3536 4.16095 92.1509 2.81239 91.199 2.10726Z" fill="#53B175"/>
<path d="M87.109 19.3653C86.4479 20.0793 85.7428 20.7403 84.9936 21.3838C83.9447 22.2916 82.8782 23.173 81.7941 24.0192C80.6306 23.3052 79.7933 22.9439 79.6522 23.129C79.5288 23.2964 80.0136 23.9134 80.8862 24.7155C77.9599 26.8926 74.8662 28.8141 71.5432 30.3918C71.0232 30.6386 70.4767 30.8149 69.9391 31.0088C69.798 31.0617 69.6482 31.0617 69.5865 31.0705C68.7403 31.1674 68.4847 30.9383 68.52 30.1626C68.6258 27.7476 69.375 25.4823 70.1506 23.2259C70.3621 22.6089 70.5825 21.9919 70.8117 21.3749C71.9839 22.0889 72.8213 22.4591 72.9623 22.274C73.1121 22.0713 72.407 21.2604 71.2259 20.2467C72.0721 18.0608 73.0152 15.9102 74.1258 13.8477C76.3469 15.4959 78.3213 16.5801 78.5417 16.2804C78.762 15.9807 77.1314 14.3853 74.8838 12.7195L74.7868 12.6489C75.1747 11.9879 75.5801 11.3268 76.012 10.6834C76.5497 9.8725 77.2107 9.13211 77.863 8.40935C78.7356 7.44861 79.8638 7.12249 81.1242 7.40454C85.1611 8.30358 87.964 10.6217 89.2861 14.5969C89.5505 15.4078 89.3125 16.201 88.8983 16.9326C88.6162 17.4262 88.3077 17.8934 87.964 18.3341C85.8309 16.774 83.98 15.7692 83.7684 16.0512C83.5657 16.3333 85.0377 17.7876 87.109 19.3653Z" fill="#F3603F"/>
<path d="M25.9802 42.9335C26.4722 42.8255 26.9642 42.7415 27.4562 42.6815C27.9482 42.6095 28.5542 42.5735 29.2742 42.5735C30.2222 42.5735 31.0382 42.7295 31.7222 43.0415C32.4062 43.3415 32.9642 43.7495 33.3962 44.2655C33.8282 44.7815 34.1462 45.3755 34.3502 46.0475C34.5542 46.7075 34.6562 47.4035 34.6562 48.1355C34.6562 49.2155 34.4882 50.2175 34.1522 51.1415C33.8282 52.0535 33.3602 52.8395 32.7482 53.4995C32.1362 54.1595 31.3922 54.6755 30.5162 55.0475C29.6402 55.4195 28.6562 55.6055 27.5642 55.6055C26.7962 55.6055 26.1122 55.5515 25.5122 55.4435C24.9122 55.3475 24.3662 55.2095 23.8742 55.0295L25.9802 42.9335ZM29.1302 44.0135C28.8182 44.0135 28.5242 44.0315 28.2482 44.0675C27.9722 44.0915 27.7142 44.1335 27.4742 44.1935L25.7822 53.8955C26.0582 53.9675 26.3522 54.0275 26.6642 54.0755C26.9762 54.1115 27.3122 54.1295 27.6722 54.1295C28.4522 54.1295 29.1602 53.9915 29.7962 53.7155C30.4442 53.4275 30.9962 53.0255 31.4522 52.5095C31.9082 51.9935 32.2622 51.3755 32.5142 50.6555C32.7662 49.9355 32.8922 49.1435 32.8922 48.2795C32.8922 47.7155 32.8142 47.1755 32.6582 46.6595C32.5142 46.1435 32.2862 45.6935 31.9742 45.3095C31.6742 44.9135 31.2842 44.6015 30.8042 44.3735C30.3362 44.1335 29.7782 44.0135 29.1302 44.0135ZM43.0817 48.7655C43.0817 48.3095 42.9437 47.9435 42.6677 47.6675C42.4037 47.3795 42.0557 47.2355 41.6237 47.2355C41.2997 47.2355 40.9517 47.3195 40.5797 47.4875C40.2197 47.6555 39.8657 47.9195 39.5177 48.2795C39.1817 48.6275 38.8757 49.0715 38.5997 49.6115C38.3357 50.1515 38.1377 50.7995 38.0057 51.5555L37.3397 55.3895H35.7197L38.0597 42.0695H39.6797L38.6357 47.9915C39.0077 47.3315 39.4937 46.8035 40.0937 46.4075C40.6937 46.0115 41.3357 45.8135 42.0197 45.8135C42.4277 45.8135 42.7997 45.8795 43.1357 46.0115C43.4717 46.1435 43.7537 46.3295 43.9817 46.5695C44.2217 46.7975 44.4017 47.0675 44.5217 47.3795C44.6537 47.6915 44.7197 48.0275 44.7197 48.3875C44.7197 48.6995 44.6837 49.0775 44.6117 49.5215L43.5857 55.3895H41.9657L42.9557 49.7915C43.0157 49.5035 43.0517 49.2935 43.0637 49.1615C43.0757 49.0295 43.0817 48.8975 43.0817 48.7655ZM46.3193 51.6995C46.3193 50.8355 46.4633 50.0435 46.7513 49.3235C47.0513 48.5915 47.4653 47.9675 47.9933 47.4515C48.5213 46.9355 49.1513 46.5335 49.8833 46.2455C50.6153 45.9575 51.4133 45.8135 52.2773 45.8135C52.9853 45.8135 53.6033 45.8855 54.1313 46.0295C54.6713 46.1735 55.1153 46.3175 55.4633 46.4615L54.3293 52.8515C54.3173 52.9115 54.3053 52.9835 54.2933 53.0675C54.2933 53.1395 54.2933 53.2175 54.2933 53.3015C54.2933 53.6375 54.3893 53.8775 54.5813 54.0215C54.7733 54.1535 55.0253 54.2195 55.3373 54.2195L54.7793 55.4795C54.1313 55.4795 53.6333 55.3235 53.2853 55.0115C52.9493 54.6995 52.7813 54.2015 52.7813 53.5175C52.4453 54.0935 52.0193 54.5855 51.5033 54.9935C50.9993 55.4015 50.4053 55.6055 49.7213 55.6055C49.2773 55.6055 48.8513 55.5155 48.4433 55.3355C48.0353 55.1555 47.6693 54.8975 47.3453 54.5615C47.0333 54.2255 46.7813 53.8175 46.5893 53.3375C46.4093 52.8455 46.3193 52.2995 46.3193 51.6995ZM53.6813 47.4155C53.4533 47.3435 53.2133 47.2895 52.9613 47.2535C52.7213 47.2055 52.4273 47.1815 52.0793 47.1815C51.4553 47.1815 50.8913 47.2895 50.3873 47.5055C49.8833 47.7215 49.4513 48.0215 49.0913 48.4055C48.7313 48.7895 48.4553 49.2455 48.2633 49.7735C48.0713 50.3015 47.9753 50.8775 47.9753 51.5015C47.9753 51.9335 48.0353 52.3175 48.1553 52.6535C48.2873 52.9775 48.4553 53.2535 48.6593 53.4815C48.8633 53.7095 49.0913 53.8835 49.3433 54.0035C49.6073 54.1115 49.8773 54.1655 50.1533 54.1655C50.5133 54.1655 50.8553 54.0695 51.1793 53.8775C51.5153 53.6855 51.8153 53.4155 52.0793 53.0675C52.3433 52.7075 52.5713 52.2875 52.7633 51.8075C52.9553 51.3155 53.0993 50.7815 53.1953 50.2055L53.6813 47.4155ZM59.3117 42.0695H60.9317L59.9597 47.5955C60.2837 47.0435 60.7097 46.6115 61.2377 46.2995C61.7657 45.9755 62.3597 45.8135 63.0197 45.8135C63.4037 45.8135 63.7577 45.8795 64.0817 46.0115C64.4177 46.1315 64.6997 46.2995 64.9277 46.5155C65.1677 46.7315 65.3537 46.9895 65.4857 47.2895C65.6177 47.5775 65.6837 47.8895 65.6837 48.2255C65.6837 48.7055 65.5997 49.1195 65.4317 49.4675C65.2637 49.8155 65.0237 50.1035 64.7117 50.3315C64.4117 50.5595 64.0517 50.7275 63.6317 50.8355C63.2237 50.9435 62.7737 50.9975 62.2817 50.9975H62.1017C62.0417 50.9975 61.9697 50.9915 61.8857 50.9795L63.4157 53.3195C63.6197 53.6315 63.8477 53.8595 64.0997 54.0035C64.3637 54.1475 64.7177 54.2195 65.1617 54.2195L64.6037 55.4795C64.0397 55.4795 63.5657 55.4015 63.1817 55.2455C62.8097 55.0775 62.4737 54.7355 62.1737 54.2195L59.9597 50.4035L60.1217 49.8815C60.3017 49.9655 60.5297 50.0375 60.8057 50.0975C61.0817 50.1455 61.3937 50.1695 61.7417 50.1695C62.5337 50.1695 63.1277 50.0075 63.5237 49.6835C63.9197 49.3595 64.1177 48.9335 64.1177 48.4055C64.1177 48.0335 63.9797 47.7215 63.7037 47.4695C63.4397 47.2055 63.0797 47.0735 62.6237 47.0735C62.3717 47.0735 62.0837 47.1335 61.7597 47.2535C61.4477 47.3615 61.1357 47.5535 60.8237 47.8295C60.5117 48.1055 60.2237 48.4775 59.9597 48.9455C59.7077 49.4135 59.5217 50.0075 59.4017 50.7275L58.5917 55.3895H56.9717L59.3117 42.0695ZM66.7451 51.6995C66.7451 50.8355 66.8891 50.0435 67.1771 49.3235C67.4771 48.5915 67.8911 47.9675 68.4191 47.4515C68.9471 46.9355 69.5771 46.5335 70.3091 46.2455C71.0411 45.9575 71.8391 45.8135 72.7031 45.8135C73.4111 45.8135 74.0291 45.8855 74.5571 46.0295C75.0971 46.1735 75.5411 46.3175 75.8891 46.4615L74.7551 52.8515C74.7431 52.9115 74.7311 52.9835 74.7191 53.0675C74.7191 53.1395 74.7191 53.2175 74.7191 53.3015C74.7191 53.6375 74.8151 53.8775 75.0071 54.0215C75.1991 54.1535 75.4511 54.2195 75.7631 54.2195L75.2051 55.4795C74.5571 55.4795 74.0591 55.3235 73.7111 55.0115C73.3751 54.6995 73.2071 54.2015 73.2071 53.5175C72.8711 54.0935 72.4451 54.5855 71.9291 54.9935C71.4251 55.4015 70.8311 55.6055 70.1471 55.6055C69.7031 55.6055 69.2771 55.5155 68.8691 55.3355C68.4611 55.1555 68.0951 54.8975 67.7711 54.5615C67.4591 54.2255 67.2071 53.8175 67.0151 53.3375C66.8351 52.8455 66.7451 52.2995 66.7451 51.6995ZM74.1071 47.4155C73.8791 47.3435 73.6391 47.2895 73.3871 47.2535C73.1471 47.2055 72.8531 47.1815 72.5051 47.1815C71.8811 47.1815 71.3171 47.2895 70.8131 47.5055C70.3091 47.7215 69.8771 48.0215 69.5171 48.4055C69.1571 48.7895 68.8811 49.2455 68.6891 49.7735C68.4971 50.3015 68.4011 50.8775 68.4011 51.5015C68.4011 51.9335 68.4611 52.3175 68.5811 52.6535C68.7131 52.9775 68.8811 53.2535 69.0851 53.4815C69.2891 53.7095 69.5171 53.8835 69.7691 54.0035C70.0331 54.1115 70.3031 54.1655 70.5791 54.1655C70.9391 54.1655 71.2811 54.0695 71.6051 53.8775C71.9411 53.6855 72.2411 53.4155 72.5051 53.0675C72.7691 52.7075 72.9971 52.2875 73.1891 51.8075C73.3811 51.3155 73.5251 50.7815 73.6211 50.2055L74.1071 47.4155ZM80.2054 54.2195C79.9414 55.1435 79.5274 55.9415 78.9634 56.6135C78.4114 57.2975 77.7394 57.8495 76.9474 58.2695L76.1014 57.7655C76.6894 57.1535 77.1814 56.5355 77.5774 55.9115C77.9854 55.2875 78.3454 54.5735 78.6574 53.7695L80.2054 54.2195ZM90.4044 42.9335C90.9564 42.8255 91.4904 42.7415 92.0064 42.6815C92.5224 42.6095 93.1104 42.5735 93.7704 42.5735C94.4904 42.5735 95.1204 42.6635 95.6604 42.8435C96.2004 43.0115 96.6444 43.2395 96.9924 43.5275C97.3524 43.8155 97.6164 44.1515 97.7844 44.5355C97.9644 44.9075 98.0544 45.2915 98.0544 45.6875C98.0544 46.5155 97.8264 47.1815 97.3704 47.6855C96.9264 48.1895 96.2544 48.5735 95.3544 48.8375C95.6904 48.9695 95.9964 49.1255 96.2724 49.3055C96.5604 49.4735 96.8064 49.6775 97.0104 49.9175C97.2144 50.1575 97.3704 50.4275 97.4784 50.7275C97.5984 51.0275 97.6584 51.3635 97.6584 51.7355C97.6584 52.3835 97.5084 52.9535 97.2084 53.4455C96.9084 53.9255 96.5004 54.3275 95.9844 54.6515C95.4684 54.9755 94.8744 55.2155 94.2024 55.3715C93.5304 55.5275 92.8284 55.6055 92.0964 55.6055C91.2324 55.6055 90.4824 55.5395 89.8464 55.4075C89.2224 55.2875 88.7004 55.1615 88.2804 55.0295L90.4044 42.9335ZM90.9444 49.5575L90.1884 53.9315C90.8244 54.0995 91.5024 54.1835 92.2224 54.1835C93.4104 54.1835 94.3224 53.9615 94.9584 53.5175C95.5944 53.0615 95.9124 52.4855 95.9124 51.7895C95.9124 51.4895 95.8464 51.2075 95.7144 50.9435C95.5944 50.6675 95.3964 50.4275 95.1204 50.2235C94.8444 50.0195 94.4904 49.8575 94.0584 49.7375C93.6384 49.6175 93.1224 49.5575 92.5104 49.5575H90.9444ZM93.6984 43.9235C93.3264 43.9235 92.9964 43.9355 92.7084 43.9595C92.4204 43.9835 92.1564 44.0195 91.9164 44.0675L91.1784 48.2255H92.9424C93.5184 48.2255 94.0224 48.1655 94.4544 48.0455C94.8864 47.9135 95.2464 47.7455 95.5344 47.5415C95.8224 47.3255 96.0324 47.0795 96.1644 46.8035C96.3084 46.5275 96.3804 46.2335 96.3804 45.9215C96.3804 45.3575 96.1524 44.8835 95.6964 44.4995C95.2524 44.1155 94.5864 43.9235 93.6984 43.9235ZM99.2998 51.6995C99.2998 50.8355 99.4438 50.0435 99.7318 49.3235C100.032 48.5915 100.446 47.9675 100.974 47.4515C101.502 46.9355 102.132 46.5335 102.864 46.2455C103.596 45.9575 104.394 45.8135 105.258 45.8135C105.966 45.8135 106.584 45.8855 107.112 46.0295C107.652 46.1735 108.096 46.3175 108.444 46.4615L107.31 52.8515C107.298 52.9115 107.286 52.9835 107.274 53.0675C107.274 53.1395 107.274 53.2175 107.274 53.3015C107.274 53.6375 107.37 53.8775 107.562 54.0215C107.754 54.1535 108.006 54.2195 108.318 54.2195L107.76 55.4795C107.112 55.4795 106.614 55.3235 106.266 55.0115C105.93 54.6995 105.762 54.2015 105.762 53.5175C105.426 54.0935 105 54.5855 104.484 54.9935C103.98 55.4015 103.386 55.6055 102.702 55.6055C102.258 55.6055 101.832 55.5155 101.424 55.3355C101.016 55.1555 100.65 54.8975 100.326 54.5615C100.014 54.2255 99.7618 53.8175 99.5698 53.3375C99.3898 52.8455 99.2998 52.2995 99.2998 51.6995ZM106.662 47.4155C106.434 47.3435 106.194 47.2895 105.942 47.2535C105.702 47.2055 105.408 47.1815 105.06 47.1815C104.436 47.1815 103.872 47.2895 103.368 47.5055C102.864 47.7215 102.432 48.0215 102.072 48.4055C101.712 48.7895 101.436 49.2455 101.244 49.7735C101.052 50.3015 100.956 50.8775 100.956 51.5015C100.956 51.9335 101.016 52.3175 101.136 52.6535C101.268 52.9775 101.436 53.2535 101.64 53.4815C101.844 53.7095 102.072 53.8835 102.324 54.0035C102.588 54.1115 102.858 54.1655 103.134 54.1655C103.494 54.1655 103.836 54.0695 104.16 53.8775C104.496 53.6855 104.796 53.4155 105.06 53.0675C105.324 52.7075 105.552 52.2875 105.744 51.8075C105.936 51.3155 106.08 50.7815 106.176 50.2055L106.662 47.4155ZM115.838 47.2355C115.526 47.2355 115.184 47.3255 114.812 47.5055C114.452 47.6735 114.098 47.9375 113.75 48.2975C113.414 48.6575 113.108 49.1195 112.832 49.6835C112.556 50.2355 112.352 50.8955 112.22 51.6635L111.572 55.3895H109.952L111.59 46.0295H113.156L112.76 48.1895C113.132 47.4695 113.63 46.8935 114.254 46.4615C114.878 46.0295 115.544 45.8135 116.252 45.8135C116.66 45.8135 117.032 45.8795 117.368 46.0115C117.704 46.1435 117.986 46.3295 118.214 46.5695C118.454 46.7975 118.634 47.0675 118.754 47.3795C118.886 47.6915 118.952 48.0275 118.952 48.3875C118.952 48.6995 118.916 49.0775 118.844 49.5215L117.818 55.3895H116.198L117.188 49.7915C117.248 49.5035 117.284 49.2935 117.296 49.1615C117.308 49.0295 117.314 48.8975 117.314 48.7655C117.314 48.2975 117.176 47.9255 116.9 47.6495C116.636 47.3735 116.282 47.2355 115.838 47.2355ZM120.552 51.6995C120.552 50.8355 120.696 50.0435 120.984 49.3235C121.284 48.5915 121.698 47.9675 122.226 47.4515C122.754 46.9355 123.384 46.5335 124.116 46.2455C124.848 45.9575 125.646 45.8135 126.51 45.8135C127.218 45.8135 127.836 45.8855 128.364 46.0295C128.904 46.1735 129.348 46.3175 129.696 46.4615L128.562 52.8515C128.55 52.9115 128.538 52.9835 128.526 53.0675C128.526 53.1395 128.526 53.2175 128.526 53.3015C128.526 53.6375 128.622 53.8775 128.814 54.0215C129.006 54.1535 129.258 54.2195 129.57 54.2195L129.012 55.4795C128.364 55.4795 127.866 55.3235 127.518 55.0115C127.182 54.6995 127.014 54.2015 127.014 53.5175C126.678 54.0935 126.252 54.5855 125.736 54.9935C125.232 55.4015 124.638 55.6055 123.954 55.6055C123.51 55.6055 123.084 55.5155 122.676 55.3355C122.268 55.1555 121.902 54.8975 121.578 54.5615C121.266 54.2255 121.014 53.8175 120.822 53.3375C120.642 52.8455 120.552 52.2995 120.552 51.6995ZM127.914 47.4155C127.686 47.3435 127.446 47.2895 127.194 47.2535C126.954 47.2055 126.66 47.1815 126.312 47.1815C125.688 47.1815 125.124 47.2895 124.62 47.5055C124.116 47.7215 123.684 48.0215 123.324 48.4055C122.964 48.7895 122.688 49.2455 122.496 49.7735C122.304 50.3015 122.208 50.8775 122.208 51.5015C122.208 51.9335 122.268 52.3175 122.388 52.6535C122.52 52.9775 122.688 53.2535 122.892 53.4815C123.096 53.7095 123.324 53.8835 123.576 54.0035C123.84 54.1115 124.11 54.1655 124.386 54.1655C124.746 54.1655 125.088 54.0695 125.412 53.8775C125.748 53.6855 126.048 53.4155 126.312 53.0675C126.576 52.7075 126.804 52.2875 126.996 51.8075C127.188 51.3155 127.332 50.7815 127.428 50.2055L127.914 47.4155ZM137.756 48.0635C137.408 47.8235 137.018 47.6135 136.586 47.4335C136.166 47.2535 135.686 47.1635 135.146 47.1635C134.57 47.1635 134.126 47.2595 133.814 47.4515C133.514 47.6435 133.364 47.8955 133.364 48.2075C133.364 48.3515 133.388 48.4835 133.436 48.6035C133.496 48.7235 133.592 48.8495 133.724 48.9815C133.868 49.1015 134.06 49.2335 134.3 49.3775C134.54 49.5215 134.846 49.6895 135.218 49.8815C136.046 50.3015 136.652 50.7275 137.036 51.1595C137.432 51.5795 137.63 52.1135 137.63 52.7615C137.63 53.2415 137.534 53.6615 137.342 54.0215C137.15 54.3695 136.88 54.6635 136.532 54.9035C136.196 55.1315 135.8 55.3055 135.344 55.4255C134.888 55.5455 134.396 55.6055 133.868 55.6055C133.136 55.6055 132.488 55.5155 131.924 55.3355C131.372 55.1435 130.892 54.8975 130.484 54.5975L131.402 53.2655C131.726 53.5295 132.104 53.7515 132.536 53.9315C132.98 54.1115 133.472 54.2015 134.012 54.2015C134.624 54.2015 135.098 54.0875 135.434 53.8595C135.782 53.6315 135.956 53.3495 135.956 53.0135C135.956 52.8575 135.926 52.7135 135.866 52.5815C135.818 52.4375 135.722 52.2935 135.578 52.1495C135.434 52.0055 135.236 51.8615 134.984 51.7175C134.744 51.5615 134.438 51.3875 134.066 51.1955C133.61 50.9675 133.232 50.7515 132.932 50.5475C132.644 50.3315 132.41 50.1095 132.23 49.8815C132.062 49.6535 131.942 49.4135 131.87 49.1615C131.798 48.8975 131.762 48.6095 131.762 48.2975C131.762 47.9375 131.846 47.6075 132.014 47.3075C132.182 46.9955 132.416 46.7315 132.716 46.5155C133.016 46.2995 133.376 46.1315 133.796 46.0115C134.216 45.8795 134.678 45.8135 135.182 45.8135C135.854 45.8135 136.454 45.9035 136.982 46.0835C137.522 46.2515 137.996 46.4555 138.404 46.6955L137.756 48.0635ZM145.754 48.0635C145.406 47.8235 145.016 47.6135 144.584 47.4335C144.164 47.2535 143.684 47.1635 143.144 47.1635C142.568 47.1635 142.124 47.2595 141.812 47.4515C141.512 47.6435 141.362 47.8955 141.362 48.2075C141.362 48.3515 141.386 48.4835 141.434 48.6035C141.494 48.7235 141.59 48.8495 141.722 48.9815C141.866 49.1015 142.058 49.2335 142.298 49.3775C142.538 49.5215 142.844 49.6895 143.216 49.8815C144.044 50.3015 144.65 50.7275 145.034 51.1595C145.43 51.5795 145.628 52.1135 145.628 52.7615C145.628 53.2415 145.532 53.6615 145.34 54.0215C145.148 54.3695 144.878 54.6635 144.53 54.9035C144.194 55.1315 143.798 55.3055 143.342 55.4255C142.886 55.5455 142.394 55.6055 141.866 55.6055C141.134 55.6055 140.486 55.5155 139.922 55.3355C139.37 55.1435 138.89 54.8975 138.482 54.5975L139.4 53.2655C139.724 53.5295 140.102 53.7515 140.534 53.9315C140.978 54.1115 141.47 54.2015 142.01 54.2015C142.622 54.2015 143.096 54.0875 143.432 53.8595C143.78 53.6315 143.954 53.3495 143.954 53.0135C143.954 52.8575 143.924 52.7135 143.864 52.5815C143.816 52.4375 143.72 52.2935 143.576 52.1495C143.432 52.0055 143.234 51.8615 142.982 51.7175C142.742 51.5615 142.436 51.3875 142.064 51.1955C141.608 50.9675 141.23 50.7515 140.93 50.5475C140.642 50.3315 140.408 50.1095 140.228 49.8815C140.06 49.6535 139.94 49.4135 139.868 49.1615C139.796 48.8975 139.76 48.6095 139.76 48.2975C139.76 47.9375 139.844 47.6075 140.012 47.3075C140.18 46.9955 140.414 46.7315 140.714 46.5155C141.014 46.2995 141.374 46.1315 141.794 46.0115C142.214 45.8795 142.676 45.8135 143.18 45.8135C143.852 45.8135 144.452 45.9035 144.98 46.0835C145.52 46.2515 145.994 46.4555 146.402 46.6955L145.754 48.0635ZM148.658 48.6575C148.67 48.5975 148.676 48.5315 148.676 48.4595C148.688 48.3755 148.694 48.2915 148.694 48.2075C148.694 47.8715 148.598 47.6375 148.406 47.5055C148.214 47.3615 147.962 47.2895 147.65 47.2895L148.208 46.0295C148.856 46.0295 149.348 46.1795 149.684 46.4795C150.02 46.7795 150.188 47.2355 150.188 47.8475V48.2075C150.536 47.3435 150.98 46.7315 151.52 46.3715C152.072 45.9995 152.696 45.8135 153.392 45.8135C153.668 45.8135 153.902 45.8375 154.094 45.8855C154.298 45.9215 154.466 45.9695 154.598 46.0295L153.878 47.6135C153.734 47.5535 153.584 47.5115 153.428 47.4875C153.272 47.4635 153.092 47.4515 152.888 47.4515C152.564 47.4515 152.24 47.5355 151.916 47.7035C151.592 47.8595 151.286 48.1295 150.998 48.5135C150.71 48.8975 150.446 49.4015 150.206 50.0255C149.966 50.6495 149.768 51.4235 149.612 52.3475L149.09 55.3895H147.47L148.658 48.6575ZM158.351 55.6055C157.751 55.6055 157.205 55.5095 156.713 55.3175C156.221 55.1135 155.795 54.8315 155.435 54.4715C155.087 54.0995 154.811 53.6495 154.607 53.1215C154.415 52.5935 154.319 51.9995 154.319 51.3395C154.319 50.5955 154.439 49.8875 154.679 49.2155C154.919 48.5435 155.255 47.9555 155.687 47.4515C156.131 46.9475 156.665 46.5515 157.289 46.2635C157.913 45.9635 158.609 45.8135 159.377 45.8135C159.893 45.8135 160.355 45.8915 160.763 46.0475C161.171 46.2035 161.513 46.4075 161.789 46.6595C162.077 46.9115 162.293 47.2055 162.437 47.5415C162.593 47.8775 162.671 48.2255 162.671 48.5855C162.671 49.2575 162.509 49.8035 162.185 50.2235C161.873 50.6435 161.477 50.9795 160.997 51.2315C160.517 51.4715 159.989 51.6395 159.413 51.7355C158.837 51.8195 158.291 51.8615 157.775 51.8615C157.451 51.8615 157.127 51.8495 156.803 51.8255C156.491 51.7895 156.215 51.7535 155.975 51.7175C156.071 52.5095 156.347 53.1155 156.803 53.5355C157.271 53.9555 157.877 54.1655 158.621 54.1655C159.221 54.1655 159.755 54.0875 160.223 53.9315C160.691 53.7755 161.087 53.6195 161.411 53.4635L161.555 54.9035C161.195 55.0715 160.739 55.2335 160.187 55.3895C159.647 55.5335 159.035 55.6055 158.351 55.6055ZM159.251 47.1815C158.831 47.1815 158.435 47.2655 158.063 47.4335C157.703 47.5895 157.379 47.8115 157.091 48.0995C156.815 48.3875 156.581 48.7295 156.389 49.1255C156.209 49.5215 156.083 49.9535 156.011 50.4215C156.287 50.4815 156.563 50.5235 156.839 50.5475C157.115 50.5715 157.427 50.5835 157.775 50.5835C158.795 50.5835 159.593 50.4455 160.169 50.1695C160.757 49.8815 161.051 49.3955 161.051 48.7115C161.051 48.2915 160.883 47.9315 160.547 47.6315C160.223 47.3315 159.791 47.1815 159.251 47.1815Z" fill="#4C4F4D"/>
<path fill-rule="evenodd" clip-rule="evenodd" d="M11.0204 39.3075C10.1053 38.9123 9.12029 38.7044 8.12349 38.6959C7.11999 38.6803 6.12382 38.8692 5.19562 39.2509C4.26741 39.6325 3.42658 40.1991 2.7243 40.9161C1.29841 42.3601 0.491346 44.3029 0.474387 46.3322C0.45743 48.3615 1.23192 50.3175 2.63347 51.7851L7.2354 56.5485C7.32802 56.6457 7.4391 56.7235 7.56214 56.7772C7.68517 56.8309 7.81769 56.8595 7.95193 56.8614C8.08598 56.8644 8.21914 56.839 8.34265 56.7868C8.46616 56.7346 8.5772 56.6569 8.66846 56.5586L13.3511 51.8659C14.7784 50.4232 15.5873 48.4811 15.6061 46.4518C15.625 44.4225 14.8523 42.4658 13.452 40.9968C12.7624 40.2771 11.9356 39.7027 11.0204 39.3075ZM7.96174 49.0055C9.31078 49.0055 10.4044 47.9119 10.4044 46.5629C10.4044 45.2138 9.31078 44.1202 7.96174 44.1202C6.6127 44.1202 5.51909 45.2138 5.51909 46.5629C5.51909 47.9119 6.6127 49.0055 7.96174 49.0055Z" fill="#4C4F4D"/>
</svg>
