<svg width="365" height="52" viewBox="0 0 365 52" fill="none" xmlns="http://www.w3.org/2000/svg">
<rect x="0.759033" y="0.389465" width="364" height="51.5684" rx="15" fill="#F2F3F2"/>
<path d="M23.7595 30.5715C24.5475 30.5715 25.3277 30.4164 26.0556 30.1148C26.7836 29.8133 27.445 29.3713 28.0022 28.8142C28.5593 28.257 29.0013 27.5956 29.3028 26.8676C29.6043 26.1397 29.7595 25.3595 29.7595 24.5715C29.7595 23.7836 29.6043 23.0034 29.3028 22.2754C29.0013 21.5475 28.5593 20.8861 28.0022 20.3289C27.445 19.7718 26.7836 19.3298 26.0556 19.0283C25.3277 18.7267 24.5475 18.5715 23.7595 18.5715C22.1682 18.5715 20.6421 19.2037 19.5169 20.3289C18.3917 21.4541 17.7595 22.9802 17.7595 24.5715C17.7595 26.1628 18.3917 27.689 19.5169 28.8142C20.6421 29.9394 22.1682 30.5715 23.7595 30.5715ZM30.0795 29.4775L33.6595 33.0575C33.755 33.1499 33.8311 33.2603 33.8834 33.3823C33.9357 33.5043 33.9632 33.6356 33.9643 33.7684C33.9653 33.9011 33.9399 34.0328 33.8896 34.1557C33.8392 34.2785 33.7649 34.3901 33.6709 34.4839C33.577 34.5778 33.4653 34.6519 33.3423 34.7021C33.2194 34.7523 33.0877 34.7775 32.9549 34.7763C32.8221 34.775 32.6909 34.7474 32.569 34.6949C32.447 34.6424 32.3367 34.5661 32.2445 34.4705L28.6645 30.8905C27.057 32.1384 25.0343 32.7267 23.0083 32.5357C20.9823 32.3448 19.1051 31.3889 17.7591 29.8626C16.413 28.3364 15.6992 26.3545 15.763 24.3205C15.8267 22.2864 16.6632 20.3532 18.1022 18.9142C19.5412 17.4752 21.4744 16.6387 23.5085 16.575C25.5425 16.5112 27.5243 17.225 29.0506 18.5711C30.5768 19.9172 31.5328 21.7943 31.7237 23.8203C31.9147 25.8463 31.3264 27.869 30.0785 29.4765L30.0795 29.4775Z" fill="#181B19"/>
<path d="M49.4973 29.2984C49.4973 29.1024 49.4693 28.925 49.4133 28.7664C49.3573 28.5984 49.2546 28.4304 49.1053 28.2624C48.9559 28.0944 48.7553 27.9217 48.5033 27.7444C48.2606 27.5577 47.9433 27.357 47.5513 27.1424C47.1873 26.937 46.8793 26.7364 46.6273 26.5404C46.3753 26.3444 46.1653 26.139 45.9973 25.9244C45.8386 25.7097 45.7219 25.4764 45.6473 25.2244C45.5819 24.9724 45.5493 24.6924 45.5493 24.3844C45.5493 23.9924 45.6286 23.6377 45.7873 23.3204C45.9459 23.003 46.1699 22.7324 46.4593 22.5084C46.7486 22.2844 47.0939 22.1117 47.4953 21.9904C47.8966 21.869 48.3399 21.8084 48.8253 21.8084C49.4133 21.8084 49.9406 21.883 50.4073 22.0324C50.8833 22.1724 51.3313 22.3637 51.7513 22.6064L51.0653 23.6984C50.7293 23.4837 50.3746 23.3064 50.0013 23.1664C49.6373 23.0264 49.2079 22.9564 48.7133 22.9564C48.1533 22.9564 47.7053 23.0777 47.3693 23.3204C47.0426 23.5537 46.8793 23.8617 46.8793 24.2444C46.8793 24.4217 46.9073 24.585 46.9633 24.7344C47.0193 24.8837 47.1079 25.0284 47.2293 25.1684C47.3599 25.3084 47.5326 25.453 47.7473 25.6024C47.9619 25.7517 48.2326 25.9104 48.5593 26.0784C49.0166 26.321 49.3946 26.5637 49.6933 26.8064C49.9919 27.0397 50.2253 27.2777 50.3933 27.5204C50.5706 27.763 50.6919 28.0197 50.7573 28.2904C50.8226 28.561 50.8553 28.855 50.8553 29.1724C50.8553 29.6017 50.7713 29.989 50.6033 30.3344C50.4353 30.6797 50.1973 30.9737 49.8893 31.2164C49.5813 31.4497 49.2126 31.6317 48.7833 31.7624C48.3539 31.8837 47.8826 31.9444 47.3693 31.9444C46.6973 31.9444 46.0906 31.8557 45.5493 31.6784C45.0079 31.4917 44.5319 31.235 44.1213 30.9084L44.9893 29.8304C45.3066 30.1197 45.6753 30.353 46.0953 30.5304C46.5246 30.6984 46.9959 30.7824 47.5093 30.7824C48.1159 30.7824 48.5966 30.6517 48.9513 30.3904C49.3153 30.1197 49.4973 29.7557 49.4973 29.2984ZM55.2941 31.9444C54.8275 31.9444 54.4028 31.8697 54.0201 31.7204C53.6375 31.5617 53.3061 31.3424 53.0261 31.0624C52.7555 30.773 52.5408 30.423 52.3821 30.0124C52.2328 29.6017 52.1581 29.1397 52.1581 28.6264C52.1581 28.0477 52.2515 27.497 52.4381 26.9744C52.6248 26.4517 52.8861 25.9944 53.2221 25.6024C53.5675 25.2104 53.9828 24.9024 54.4681 24.6784C54.9535 24.445 55.4948 24.3284 56.0921 24.3284C56.4935 24.3284 56.8528 24.389 57.1701 24.5104C57.4875 24.6317 57.7535 24.7904 57.9681 24.9864C58.1921 25.1824 58.3601 25.411 58.4721 25.6724C58.5935 25.9337 58.6541 26.2044 58.6541 26.4844C58.6541 27.007 58.5281 27.4317 58.2761 27.7584C58.0335 28.085 57.7255 28.3464 57.3521 28.5424C56.9788 28.729 56.5681 28.8597 56.1201 28.9344C55.6721 28.9997 55.2475 29.0324 54.8461 29.0324C54.5941 29.0324 54.3421 29.023 54.0901 29.0044C53.8475 28.9764 53.6328 28.9484 53.4461 28.9204C53.5208 29.5364 53.7355 30.0077 54.0901 30.3344C54.4541 30.661 54.9255 30.8244 55.5041 30.8244C55.9708 30.8244 56.3861 30.7637 56.7501 30.6424C57.1141 30.521 57.4221 30.3997 57.6741 30.2784L57.7861 31.3984C57.5061 31.529 57.1515 31.655 56.7221 31.7764C56.3021 31.8884 55.8261 31.9444 55.2941 31.9444ZM55.9941 25.3924C55.6675 25.3924 55.3595 25.4577 55.0701 25.5884C54.7901 25.7097 54.5381 25.8824 54.3141 26.1064C54.0995 26.3304 53.9175 26.5964 53.7681 26.9044C53.6281 27.2124 53.5301 27.5484 53.4741 27.9124C53.6888 27.959 53.9035 27.9917 54.1181 28.0104C54.3328 28.029 54.5755 28.0384 54.8461 28.0384C55.6395 28.0384 56.2601 27.931 56.7081 27.7164C57.1655 27.4924 57.3941 27.1144 57.3941 26.5824C57.3941 26.2557 57.2635 25.9757 57.0021 25.7424C56.7501 25.509 56.4141 25.3924 55.9941 25.3924ZM59.4042 28.9064C59.4042 28.2344 59.5162 27.6184 59.7402 27.0584C59.9736 26.489 60.2956 26.0037 60.7062 25.6024C61.1169 25.201 61.6069 24.8884 62.1762 24.6644C62.7456 24.4404 63.3662 24.3284 64.0382 24.3284C64.5889 24.3284 65.0696 24.3844 65.4802 24.4964C65.9002 24.6084 66.2456 24.7204 66.5162 24.8324L65.6342 29.8024C65.6249 29.849 65.6156 29.905 65.6062 29.9704C65.6062 30.0264 65.6062 30.087 65.6062 30.1524C65.6062 30.4137 65.6809 30.6004 65.8302 30.7124C65.9796 30.815 66.1756 30.8664 66.4182 30.8664L65.9842 31.8464C65.4802 31.8464 65.0929 31.725 64.8222 31.4824C64.5609 31.2397 64.4302 30.8524 64.4302 30.3204C64.1689 30.7684 63.8376 31.151 63.4362 31.4684C63.0442 31.7857 62.5822 31.9444 62.0502 31.9444C61.7049 31.9444 61.3736 31.8744 61.0562 31.7344C60.7389 31.5944 60.4542 31.3937 60.2022 31.1324C59.9596 30.871 59.7636 30.5537 59.6142 30.1804C59.4742 29.7977 59.4042 29.373 59.4042 28.9064ZM65.1302 25.5744C64.9529 25.5184 64.7662 25.4764 64.5702 25.4484C64.3836 25.411 64.1549 25.3924 63.8842 25.3924C63.3989 25.3924 62.9602 25.4764 62.5682 25.6444C62.1762 25.8124 61.8402 26.0457 61.5602 26.3444C61.2802 26.643 61.0656 26.9977 60.9162 27.4084C60.7669 27.819 60.6922 28.267 60.6922 28.7524C60.6922 29.0884 60.7389 29.387 60.8322 29.6484C60.9349 29.9004 61.0656 30.115 61.2242 30.2924C61.3829 30.4697 61.5602 30.605 61.7562 30.6984C61.9616 30.7824 62.1716 30.8244 62.3862 30.8244C62.6662 30.8244 62.9322 30.7497 63.1842 30.6004C63.4456 30.451 63.6789 30.241 63.8842 29.9704C64.0896 29.6904 64.2669 29.3637 64.4162 28.9904C64.5656 28.6077 64.6776 28.1924 64.7522 27.7444L65.1302 25.5744ZM68.8234 26.5404C68.8327 26.4937 68.8374 26.4424 68.8374 26.3864C68.8467 26.321 68.8514 26.2557 68.8514 26.1904C68.8514 25.929 68.7767 25.747 68.6274 25.6444C68.4781 25.5324 68.2821 25.4764 68.0394 25.4764L68.4734 24.4964C68.9774 24.4964 69.3601 24.613 69.6214 24.8464C69.8827 25.0797 70.0134 25.4344 70.0134 25.9104V26.1904C70.2841 25.5184 70.6294 25.0424 71.0494 24.7624C71.4787 24.473 71.9641 24.3284 72.5054 24.3284C72.7201 24.3284 72.9021 24.347 73.0514 24.3844C73.2101 24.4124 73.3407 24.4497 73.4434 24.4964L72.8834 25.7284C72.7714 25.6817 72.6547 25.649 72.5334 25.6304C72.4121 25.6117 72.2721 25.6024 72.1134 25.6024C71.8614 25.6024 71.6094 25.6677 71.3574 25.7984C71.1054 25.9197 70.8674 26.1297 70.6434 26.4284C70.4194 26.727 70.2141 27.119 70.0274 27.6044C69.8407 28.0897 69.6867 28.6917 69.5654 29.4104L69.1594 31.7764H67.8994L68.8234 26.5404ZM78.7425 25.9664C78.4998 25.817 78.2432 25.6957 77.9725 25.6024C77.7112 25.4997 77.4172 25.4484 77.0905 25.4484C76.6985 25.4484 76.3438 25.5277 76.0265 25.6864C75.7092 25.845 75.4385 26.0644 75.2145 26.3444C74.9905 26.615 74.8178 26.937 74.6965 27.3104C74.5752 27.6837 74.5145 28.085 74.5145 28.5144C74.5145 29.2237 74.6918 29.7884 75.0465 30.2084C75.4012 30.619 75.8865 30.8244 76.5025 30.8244C76.8572 30.8244 77.1698 30.7824 77.4405 30.6984C77.7112 30.6144 77.9585 30.5164 78.1825 30.4044L78.3365 31.5104C78.1032 31.613 77.8185 31.711 77.4825 31.8044C77.1558 31.8977 76.7592 31.9444 76.2925 31.9444C75.8352 31.9444 75.4198 31.8697 75.0465 31.7204C74.6732 31.5617 74.3512 31.3377 74.0805 31.0484C73.8098 30.759 73.5998 30.4184 73.4505 30.0264C73.3012 29.625 73.2265 29.177 73.2265 28.6824C73.2265 28.0944 73.3152 27.539 73.4925 27.0164C73.6792 26.4937 73.9452 26.0317 74.2905 25.6304C74.6358 25.229 75.0512 24.9117 75.5365 24.6784C76.0218 24.445 76.5725 24.3284 77.1885 24.3284C77.6272 24.3284 78.0145 24.3844 78.3505 24.4964C78.6865 24.599 78.9898 24.7297 79.2605 24.8884L78.7425 25.9664ZM85.3919 26.6244C85.3919 26.2697 85.2846 25.985 85.0699 25.7704C84.8646 25.5464 84.5939 25.4344 84.2579 25.4344C84.0059 25.4344 83.7353 25.4997 83.4459 25.6304C83.1659 25.761 82.8906 25.9664 82.6199 26.2464C82.3586 26.517 82.1206 26.8624 81.9059 27.2824C81.7006 27.7024 81.5466 28.2064 81.4439 28.7944L80.9259 31.7764H79.6659L81.4859 21.4164H82.7459L81.9339 26.0224C82.2233 25.509 82.6013 25.0984 83.0679 24.7904C83.5346 24.4824 84.0339 24.3284 84.5659 24.3284C84.8833 24.3284 85.1726 24.3797 85.4339 24.4824C85.6953 24.585 85.9146 24.7297 86.0919 24.9164C86.2786 25.0937 86.4186 25.3037 86.5119 25.5464C86.6146 25.789 86.6659 26.0504 86.6659 26.3304C86.6659 26.573 86.6379 26.867 86.5819 27.2124L85.7839 31.7764H84.5239L85.2939 27.4224C85.3406 27.1984 85.3686 27.035 85.3779 26.9324C85.3873 26.8297 85.3919 26.727 85.3919 26.6244ZM96.9934 29.2984C96.9934 29.1024 96.9654 28.925 96.9094 28.7664C96.8534 28.5984 96.7507 28.4304 96.6014 28.2624C96.452 28.0944 96.2514 27.9217 95.9994 27.7444C95.7567 27.5577 95.4394 27.357 95.0474 27.1424C94.6834 26.937 94.3754 26.7364 94.1234 26.5404C93.8714 26.3444 93.6614 26.139 93.4934 25.9244C93.3347 25.7097 93.218 25.4764 93.1434 25.2244C93.078 24.9724 93.0454 24.6924 93.0454 24.3844C93.0454 23.9924 93.1247 23.6377 93.2834 23.3204C93.442 23.003 93.666 22.7324 93.9554 22.5084C94.2447 22.2844 94.59 22.1117 94.9914 21.9904C95.3927 21.869 95.836 21.8084 96.3214 21.8084C96.9094 21.8084 97.4367 21.883 97.9034 22.0324C98.3794 22.1724 98.8274 22.3637 99.2474 22.6064L98.5614 23.6984C98.2254 23.4837 97.8707 23.3064 97.4974 23.1664C97.1334 23.0264 96.704 22.9564 96.2094 22.9564C95.6494 22.9564 95.2014 23.0777 94.8654 23.3204C94.5387 23.5537 94.3754 23.8617 94.3754 24.2444C94.3754 24.4217 94.4034 24.585 94.4594 24.7344C94.5154 24.8837 94.604 25.0284 94.7254 25.1684C94.856 25.3084 95.0287 25.453 95.2434 25.6024C95.458 25.7517 95.7287 25.9104 96.0554 26.0784C96.5127 26.321 96.8907 26.5637 97.1894 26.8064C97.488 27.0397 97.7214 27.2777 97.8894 27.5204C98.0667 27.763 98.188 28.0197 98.2534 28.2904C98.3187 28.561 98.3514 28.855 98.3514 29.1724C98.3514 29.6017 98.2674 29.989 98.0994 30.3344C97.9314 30.6797 97.6934 30.9737 97.3854 31.2164C97.0774 31.4497 96.7087 31.6317 96.2794 31.7624C95.85 31.8837 95.3787 31.9444 94.8654 31.9444C94.1934 31.9444 93.5867 31.8557 93.0454 31.6784C92.504 31.4917 92.028 31.235 91.6174 30.9084L92.4854 29.8304C92.8027 30.1197 93.1714 30.353 93.5914 30.5304C94.0207 30.6984 94.492 30.7824 95.0054 30.7824C95.612 30.7824 96.0927 30.6517 96.4474 30.3904C96.8114 30.1197 96.9934 29.7557 96.9934 29.2984ZM99.7012 24.7624H100.989L101.661 22.4664H102.627L102.221 24.7624H104.237L104.055 25.8544H102.025L101.437 29.2564C101.4 29.443 101.381 29.6204 101.381 29.7884C101.381 30.115 101.474 30.3717 101.661 30.5584C101.857 30.7357 102.118 30.8244 102.445 30.8244C102.716 30.8244 102.94 30.787 103.117 30.7124C103.304 30.6284 103.476 30.5444 103.635 30.4604L103.789 31.5524C103.612 31.655 103.388 31.7437 103.117 31.8184C102.856 31.9024 102.562 31.9444 102.235 31.9444C101.974 31.9444 101.717 31.9024 101.465 31.8184C101.213 31.7437 100.989 31.627 100.793 31.4684C100.597 31.3004 100.438 31.0857 100.317 30.8244C100.196 30.563 100.135 30.2504 100.135 29.8864C100.135 29.7837 100.14 29.681 100.149 29.5784C100.158 29.4664 100.172 29.3404 100.191 29.2004L100.765 25.8544H99.5192L99.7012 24.7624ZM108.197 30.8244C108.617 30.8244 108.991 30.745 109.317 30.5864C109.644 30.4277 109.924 30.2084 110.157 29.9284C110.391 29.6484 110.568 29.3217 110.689 28.9484C110.811 28.575 110.871 28.169 110.871 27.7304C110.871 27.413 110.82 27.1144 110.717 26.8344C110.624 26.5544 110.484 26.3117 110.297 26.1064C110.12 25.901 109.901 25.7424 109.639 25.6304C109.378 25.509 109.079 25.4484 108.743 25.4484C108.333 25.4484 107.959 25.5277 107.623 25.6864C107.297 25.845 107.017 26.0644 106.783 26.3444C106.55 26.6244 106.373 26.9557 106.251 27.3384C106.13 27.7117 106.069 28.113 106.069 28.5424C106.069 28.8597 106.116 29.1584 106.209 29.4384C106.303 29.7184 106.438 29.961 106.615 30.1664C106.802 30.3717 107.026 30.535 107.287 30.6564C107.558 30.7684 107.861 30.8244 108.197 30.8244ZM108.155 31.9444C107.633 31.9444 107.161 31.865 106.741 31.7064C106.331 31.5384 105.981 31.3097 105.691 31.0204C105.402 30.731 105.178 30.3857 105.019 29.9844C104.861 29.5737 104.781 29.1304 104.781 28.6544C104.781 28.0477 104.875 27.483 105.061 26.9604C105.248 26.4284 105.514 25.971 105.859 25.5884C106.214 25.1964 106.639 24.8884 107.133 24.6644C107.628 24.4404 108.179 24.3284 108.785 24.3284C109.299 24.3284 109.765 24.4124 110.185 24.5804C110.605 24.739 110.96 24.963 111.249 25.2524C111.539 25.5417 111.763 25.8917 111.921 26.3024C112.08 26.7037 112.159 27.1424 112.159 27.6184C112.159 28.225 112.066 28.7944 111.879 29.3264C111.693 29.849 111.422 30.3064 111.067 30.6984C110.722 31.081 110.302 31.3844 109.807 31.6084C109.313 31.8324 108.762 31.9444 108.155 31.9444ZM114.323 26.5404C114.333 26.4937 114.337 26.4424 114.337 26.3864C114.347 26.321 114.351 26.2557 114.351 26.1904C114.351 25.929 114.277 25.747 114.127 25.6444C113.978 25.5324 113.782 25.4764 113.539 25.4764L113.973 24.4964C114.477 24.4964 114.86 24.613 115.121 24.8464C115.383 25.0797 115.513 25.4344 115.513 25.9104V26.1904C115.784 25.5184 116.129 25.0424 116.549 24.7624C116.979 24.473 117.464 24.3284 118.005 24.3284C118.22 24.3284 118.402 24.347 118.551 24.3844C118.71 24.4124 118.841 24.4497 118.943 24.4964L118.383 25.7284C118.271 25.6817 118.155 25.649 118.033 25.6304C117.912 25.6117 117.772 25.6024 117.613 25.6024C117.361 25.6024 117.109 25.6677 116.857 25.7984C116.605 25.9197 116.367 26.1297 116.143 26.4284C115.919 26.727 115.714 27.119 115.527 27.6044C115.341 28.0897 115.187 28.6917 115.065 29.4104L114.659 31.7764H113.399L114.323 26.5404ZM121.862 31.9444C121.396 31.9444 120.971 31.8697 120.588 31.7204C120.206 31.5617 119.874 31.3424 119.594 31.0624C119.324 30.773 119.109 30.423 118.95 30.0124C118.801 29.6017 118.726 29.1397 118.726 28.6264C118.726 28.0477 118.82 27.497 119.006 26.9744C119.193 26.4517 119.454 25.9944 119.79 25.6024C120.136 25.2104 120.551 24.9024 121.036 24.6784C121.522 24.445 122.063 24.3284 122.66 24.3284C123.062 24.3284 123.421 24.389 123.738 24.5104C124.056 24.6317 124.322 24.7904 124.536 24.9864C124.76 25.1824 124.928 25.411 125.04 25.6724C125.162 25.9337 125.222 26.2044 125.222 26.4844C125.222 27.007 125.096 27.4317 124.844 27.7584C124.602 28.085 124.294 28.3464 123.92 28.5424C123.547 28.729 123.136 28.8597 122.688 28.9344C122.24 28.9997 121.816 29.0324 121.414 29.0324C121.162 29.0324 120.91 29.023 120.658 29.0044C120.416 28.9764 120.201 28.9484 120.014 28.9204C120.089 29.5364 120.304 30.0077 120.658 30.3344C121.022 30.661 121.494 30.8244 122.072 30.8244C122.539 30.8244 122.954 30.7637 123.318 30.6424C123.682 30.521 123.99 30.3997 124.242 30.2784L124.354 31.3984C124.074 31.529 123.72 31.655 123.29 31.7764C122.87 31.8884 122.394 31.9444 121.862 31.9444ZM122.562 25.3924C122.236 25.3924 121.928 25.4577 121.638 25.5884C121.358 25.7097 121.106 25.8824 120.882 26.1064C120.668 26.3304 120.486 26.5964 120.336 26.9044C120.196 27.2124 120.098 27.5484 120.042 27.9124C120.257 27.959 120.472 27.9917 120.686 28.0104C120.901 28.029 121.144 28.0384 121.414 28.0384C122.208 28.0384 122.828 27.931 123.276 27.7164C123.734 27.4924 123.962 27.1144 123.962 26.5824C123.962 26.2557 123.832 25.9757 123.57 25.7424C123.318 25.509 122.982 25.3924 122.562 25.3924Z" fill="#7C7C7C"/>
</svg>
