<svg width="268" height="70" viewBox="0 0 268 70" fill="none" xmlns="http://www.w3.org/2000/svg">
<path fill-rule="evenodd" clip-rule="evenodd" d="M37.5433 5.6422C37.8164 3.20276 36.0869 0.99998 33.6475 0.726908C31.208 0.435631 29.0052 2.18329 28.7322 4.62273C28.4045 7.40806 28.8596 10.7395 29.4422 14.162C31.0624 14.6536 32.628 15.3636 34.0844 16.201C35.65 12.5054 37.1792 8.84624 37.5433 5.6422ZM54.674 16.3466C53.7091 14.0892 51.0876 13.0697 48.8302 14.0346C45.8629 15.3271 42.7863 17.8576 39.6914 20.4609C40.8566 21.6078 41.9488 22.9003 42.8773 24.3021C46.3908 23.8652 49.7587 23.3372 52.362 22.2085C54.6194 21.2073 55.657 18.5858 54.674 16.3466ZM47.1918 4.44068C45.2257 2.9843 42.4404 3.38481 40.984 5.35092C38.763 8.33651 37.2702 12.7967 35.65 17.1476C36.1961 17.5117 36.7059 17.8758 37.1974 18.2581C37.5615 18.5494 37.9438 18.8589 38.3261 19.1683C42.0399 16.3648 45.8993 13.6341 48.1203 10.6485C49.5766 8.6824 49.1579 5.89706 47.1918 4.44068Z" fill="white"/>
<path d="M38.7449 40.0856C37.3795 41.5602 35.9231 42.9256 34.3757 44.2545C32.2093 46.1296 30.0066 47.9501 27.7674 49.6978C25.3643 48.2232 23.6349 47.4768 23.3436 47.8591C23.0887 48.205 24.09 49.4793 25.8923 51.1359C19.8483 55.6325 13.4584 59.6012 6.59521 62.8598C5.52113 63.3696 4.39243 63.7337 3.28194 64.1342C2.99066 64.2434 2.68118 64.2434 2.55375 64.2616C0.80609 64.4618 0.278152 63.9885 0.350971 62.3865C0.569428 57.3984 2.11683 52.7198 3.71886 48.0593C4.15577 46.785 4.61089 45.5107 5.08421 44.2363C7.50545 45.7109 9.2349 46.4755 9.52618 46.0932C9.83566 45.6745 8.37928 43.9997 5.93984 41.9061C7.6875 37.3913 9.63541 32.9494 11.9292 28.6895C16.5168 32.0937 20.5947 34.3329 21.0498 33.714C21.5049 33.095 18.137 29.7999 13.4948 26.3592L13.2946 26.2136C14.0956 24.8482 14.933 23.4829 15.825 22.1539C16.9355 20.4791 18.3009 18.9499 19.648 17.4571C21.4503 15.4728 23.7805 14.7992 26.3838 15.3818C34.7216 17.2386 40.5107 22.0265 43.2414 30.2369C43.7876 31.9117 43.2961 33.5501 42.4404 35.0611C41.8579 36.0806 41.2207 37.0454 40.5107 37.9557C36.1052 34.7334 32.2822 32.6581 31.8452 33.2407C31.4265 33.8232 34.4667 36.827 38.7449 40.0856Z" fill="white"/>
<path d="M92.4489 10.4026C86.678 10.4026 82.9278 12.7146 80.6522 17.1019H80.5248V14.3712C80.5248 12.4051 78.9228 10.8213 76.9567 10.8213C74.9906 10.8213 73.4067 12.4051 73.4067 14.3712V44.573C73.4067 46.5391 74.9906 48.1411 76.9567 48.1411H77.3026C79.2687 48.1411 80.8707 46.5391 80.8707 44.573V26.5866C80.8707 20.7065 84.2386 16.7925 89.8639 16.7925C95.3253 16.7925 97.9468 19.9601 97.9468 25.6218V44.573C97.9468 46.5391 99.5306 48.1411 101.497 48.1411H101.843C103.809 48.1411 105.393 46.5391 105.393 44.573V24.22C105.393 15.6274 100.696 10.4026 92.4489 10.4026Z" fill="white"/>
<path d="M128.422 10.3297C117.99 10.3297 111.182 17.9393 111.182 29.6086C111.182 41.296 117.917 48.578 128.731 48.578C135.43 48.578 140.965 45.6106 143.459 40.9866C144.387 39.2935 143.113 37.2 141.183 37.2H139.29C138.343 37.2 137.524 37.7461 137.032 38.5653C135.594 41.0412 132.572 42.534 128.877 42.534C122.76 42.534 118.7 38.2741 118.7 31.8114V31.3744H142.548C143.968 31.3744 145.134 30.2093 145.134 28.7894V28.7529C145.134 17.4478 138.671 10.3297 128.422 10.3297ZM118.737 26.0768C119.155 20.3423 123.033 16.4101 128.403 16.4101C133.828 16.4101 137.506 20.2695 137.67 26.0768H118.737Z" fill="white"/>
<path d="M179.85 35.5979H177.866C176.792 35.5979 175.863 36.2715 175.463 37.2728C174.17 40.5679 171.221 42.3337 167.034 42.3337C161.045 42.3337 157.003 37.5094 157.003 29.4811C157.003 21.6349 160.99 16.6286 166.998 16.6286C171.33 16.6286 174.225 18.7767 175.408 21.8351C175.809 22.8546 176.737 23.5646 177.848 23.5646H179.832C181.561 23.5646 182.854 21.8715 182.29 20.2331C180.378 14.6078 174.917 10.3297 166.925 10.3297C156.384 10.3297 149.43 17.8665 149.43 29.4811C149.43 41.296 156.402 48.578 166.998 48.578C174.589 48.578 180.232 44.8642 182.308 38.984C182.89 37.3274 181.616 35.5979 179.85 35.5979Z" fill="white"/>
<path d="M202.206 42.2791C202.078 42.2609 201.932 42.2427 201.805 42.2427C199.347 41.9514 198.2 40.4222 198.2 37.5459V16.7014H202.406C204.044 16.7014 205.355 15.3724 205.355 13.7522C205.355 12.132 204.044 10.8212 202.406 10.8212H198.2V6.14261C198.2 5.12314 197.782 4.1947 197.108 3.52112C196.435 2.84754 195.524 2.42883 194.487 2.42883C192.448 2.42883 190.791 4.10367 190.791 6.14261V10.8212H188.57C186.95 10.8212 185.621 12.132 185.621 13.7522C185.621 15.3724 186.95 16.7014 188.57 16.7014H190.791V38.3105C190.791 45.5196 193.667 48.3777 201.131 48.3777C201.15 48.3777 201.168 48.3777 201.168 48.3777C202.023 48.3777 202.806 48.1228 203.462 47.6677C203.48 47.6677 203.498 47.6495 203.498 47.6495C204.263 47.1034 204.772 46.2113 204.772 45.2101C204.772 43.7173 203.662 42.4611 202.206 42.2791Z" fill="white"/>
<path d="M226.418 10.3297C220.592 10.3297 215.786 12.6963 213.329 16.3555C212.928 16.9745 212.728 17.648 212.728 18.3034C212.728 20.1239 214.184 21.8169 216.241 21.8169C217.443 21.8169 218.59 21.1798 219.154 20.1239C220.356 17.8665 222.923 16.4829 226.218 16.4829C231.206 16.4829 234.046 18.8313 234.046 23.0913V23.5464C234.046 24.9117 232.99 26.0404 231.624 26.1133L223.978 26.5502C214.767 27.1327 209.724 30.9193 209.724 37.4548C209.724 44.1178 214.876 48.5051 222.34 48.5051C227.419 48.5051 232.061 45.9747 234.119 41.915H234.282V44.5729C234.282 45.556 234.683 46.448 235.32 47.1034C235.975 47.7405 236.867 48.141 237.851 48.141C239.817 48.141 241.4 46.539 241.4 44.5729V22.5451C241.4 15.154 235.52 10.3297 226.418 10.3297ZM234.046 34.1234C234.046 39.0204 229.859 42.5704 224.324 42.5704C220.028 42.5704 217.243 40.5132 217.243 37.3092C217.243 34.0141 219.901 32.1208 224.98 31.8114L234.046 31.1924V34.1234Z" fill="white"/>
<path d="M265.158 10.439C260.752 10.439 257.33 12.9512 256.146 17.1019H256.019V14.3712C256.019 12.4051 254.417 10.8213 252.469 10.8213C250.503 10.8213 248.901 12.4051 248.901 14.3712V44.4091C248.901 45.4286 249.32 46.3752 249.993 47.0488C250.667 47.7224 251.595 48.1411 252.633 48.1411C254.69 48.1411 256.365 46.4662 256.365 44.4091V25.8766C256.365 20.6154 259.46 17.2111 264.375 17.2111C264.575 17.2111 264.794 17.2111 264.994 17.2293C266.523 17.284 267.761 16.0278 267.761 14.4986V13.0605C267.761 11.6223 266.596 10.439 265.158 10.439Z" fill="white"/>
<path d="M204.773 45.2101C204.773 46.2113 204.263 47.1034 203.498 47.6495C203.498 47.6495 203.48 47.6677 203.462 47.6677C202.988 47.9954 202.424 48.1774 201.805 48.1774C200.149 48.1774 198.82 46.8485 198.82 45.2101C198.82 43.5716 200.149 42.2427 201.805 42.2427C201.933 42.2427 202.078 42.2609 202.206 42.2791C203.662 42.4611 204.773 43.7173 204.773 45.2101Z" fill="white"/>
<path d="M78.6083 64.3528C79.0283 64.3528 79.4016 64.2735 79.7283 64.1148C80.055 63.9561 80.335 63.7368 80.5683 63.4568C80.8016 63.1768 80.979 62.8501 81.1003 62.4768C81.2217 62.1035 81.2823 61.6975 81.2823 61.2588C81.2823 60.9415 81.231 60.6428 81.1283 60.3628C81.035 60.0828 80.895 59.8401 80.7083 59.6348C80.531 59.4295 80.3117 59.2708 80.0503 59.1588C79.789 59.0375 79.4903 58.9768 79.1543 58.9768C78.7437 58.9768 78.3703 59.0561 78.0343 59.2148C77.7076 59.3735 77.4276 59.5928 77.1943 59.8728C76.961 60.1528 76.7836 60.4841 76.6623 60.8668C76.541 61.2401 76.4803 61.6415 76.4803 62.0708C76.4803 62.3881 76.527 62.6868 76.6203 62.9668C76.7136 63.2468 76.849 63.4895 77.0263 63.6948C77.213 63.9001 77.437 64.0635 77.6983 64.1848C77.969 64.2968 78.2723 64.3528 78.6083 64.3528ZM78.5663 65.4728C78.0437 65.4728 77.5723 65.3935 77.1523 65.2348C76.7416 65.0668 76.3916 64.8381 76.1023 64.5488C75.813 64.2595 75.589 63.9141 75.4303 63.5128C75.2716 63.1021 75.1923 62.6588 75.1923 62.1828C75.1923 61.5761 75.2856 61.0115 75.4723 60.4888C75.659 59.9568 75.925 59.4995 76.2703 59.1168C76.625 58.7248 77.0496 58.4168 77.5443 58.1928C78.039 57.9688 78.5896 57.8568 79.1963 57.8568C79.7096 57.8568 80.1763 57.9408 80.5963 58.1088C81.0163 58.2675 81.371 58.4915 81.6603 58.7808C81.9497 59.0701 82.1737 59.4201 82.3323 59.8308C82.491 60.2321 82.5703 60.6708 82.5703 61.1468C82.5703 61.7535 82.477 62.3228 82.2903 62.8548C82.1037 63.3775 81.833 63.8348 81.4783 64.2268C81.133 64.6095 80.713 64.9128 80.2183 65.1368C79.7237 65.3608 79.173 65.4728 78.5663 65.4728ZM93.6785 58.9628C93.4359 58.9628 93.1699 59.0328 92.8805 59.1728C92.6005 59.3035 92.3252 59.5088 92.0545 59.7888C91.7932 60.0688 91.5552 60.4281 91.3405 60.8668C91.1259 61.2961 90.9672 61.8095 90.8645 62.4068L90.3605 65.3048H89.1005L90.3745 58.0248H91.5925L91.2845 59.7048C91.5739 59.1448 91.9612 58.6968 92.4465 58.3608C92.9319 58.0248 93.4499 57.8568 94.0005 57.8568C94.3179 57.8568 94.6072 57.9081 94.8685 58.0108C95.1299 58.1135 95.3492 58.2581 95.5265 58.4448C95.7132 58.6221 95.8532 58.8321 95.9465 59.0748C96.0492 59.3175 96.1005 59.5788 96.1005 59.8588C96.1005 60.1015 96.0725 60.3955 96.0165 60.7408L95.2185 65.3048H93.9585L94.7285 60.9508C94.7752 60.7268 94.8032 60.5635 94.8125 60.4608C94.8219 60.3581 94.8265 60.2555 94.8265 60.1528C94.8265 59.7888 94.7192 59.4995 94.5045 59.2848C94.2992 59.0701 94.0239 58.9628 93.6785 58.9628ZM104.371 62.7848C104.352 62.9155 104.338 63.0275 104.329 63.1208C104.319 63.2141 104.315 63.2981 104.315 63.3728C104.315 63.6995 104.408 63.9515 104.595 64.1288C104.781 64.2968 105.038 64.3808 105.365 64.3808C105.523 64.3808 105.682 64.3621 105.841 64.3248C105.999 64.2875 106.144 64.2361 106.275 64.1708L106.401 65.1928C106.233 65.2768 106.037 65.3421 105.813 65.3888C105.589 65.4448 105.346 65.4728 105.085 65.4728C104.805 65.4728 104.539 65.4308 104.287 65.3468C104.044 65.2721 103.829 65.1555 103.643 64.9968C103.465 64.8381 103.321 64.6375 103.209 64.3948C103.106 64.1428 103.055 63.8535 103.055 63.5268C103.055 63.3961 103.059 63.2795 103.069 63.1768C103.078 63.0648 103.092 62.9435 103.111 62.8128L104.483 54.9448H105.743L104.371 62.7848ZM114.198 65.3048H112.938L114.212 58.0248H115.472L114.198 65.3048ZM115.136 56.7788C114.875 56.7788 114.674 56.7041 114.534 56.5548C114.404 56.3961 114.338 56.2141 114.338 56.0088C114.338 55.7101 114.432 55.4721 114.618 55.2948C114.805 55.1081 115.038 55.0148 115.318 55.0148C115.58 55.0148 115.776 55.0941 115.906 55.2528C116.046 55.4021 116.116 55.5795 116.116 55.7848C116.116 56.0835 116.023 56.3261 115.836 56.5128C115.65 56.6901 115.416 56.7788 115.136 56.7788ZM126.585 58.9628C126.342 58.9628 126.076 59.0328 125.787 59.1728C125.507 59.3035 125.231 59.5088 124.961 59.7888C124.699 60.0688 124.461 60.4281 124.247 60.8668C124.032 61.2961 123.873 61.8095 123.771 62.4068L123.267 65.3048H122.007L123.281 58.0248H124.499L124.191 59.7048C124.48 59.1448 124.867 58.6968 125.353 58.3608C125.838 58.0248 126.356 57.8568 126.907 57.8568C127.224 57.8568 127.513 57.9081 127.775 58.0108C128.036 58.1135 128.255 58.2581 128.433 58.4448C128.619 58.6221 128.759 58.8321 128.853 59.0748C128.955 59.3175 129.007 59.5788 129.007 59.8588C129.007 60.1015 128.979 60.3955 128.923 60.7408L128.125 65.3048H126.865L127.635 60.9508C127.681 60.7268 127.709 60.5635 127.719 60.4608C127.728 60.3581 127.733 60.2555 127.733 60.1528C127.733 59.7888 127.625 59.4995 127.411 59.2848C127.205 59.0701 126.93 58.9628 126.585 58.9628ZM138.887 65.4728C138.42 65.4728 137.996 65.3981 137.613 65.2488C137.23 65.0901 136.899 64.8708 136.619 64.5908C136.348 64.3015 136.134 63.9515 135.975 63.5408C135.826 63.1301 135.751 62.6681 135.751 62.1548C135.751 61.5761 135.844 61.0255 136.031 60.5028C136.218 59.9801 136.479 59.5228 136.815 59.1308C137.16 58.7388 137.576 58.4308 138.061 58.2068C138.546 57.9735 139.088 57.8568 139.685 57.8568C140.086 57.8568 140.446 57.9175 140.763 58.0388C141.08 58.1601 141.346 58.3188 141.561 58.5148C141.785 58.7108 141.953 58.9395 142.065 59.2008C142.186 59.4621 142.247 59.7328 142.247 60.0128C142.247 60.5355 142.121 60.9601 141.869 61.2868C141.626 61.6135 141.318 61.8748 140.945 62.0708C140.572 62.2575 140.161 62.3881 139.713 62.4628C139.265 62.5281 138.84 62.5608 138.439 62.5608C138.187 62.5608 137.935 62.5515 137.683 62.5328C137.44 62.5048 137.226 62.4768 137.039 62.4488C137.114 63.0648 137.328 63.5361 137.683 63.8628C138.047 64.1895 138.518 64.3528 139.097 64.3528C139.564 64.3528 139.979 64.2921 140.343 64.1708C140.707 64.0495 141.015 63.9281 141.267 63.8068L141.379 64.9268C141.099 65.0575 140.744 65.1835 140.315 65.3048C139.895 65.4168 139.419 65.4728 138.887 65.4728ZM139.587 58.9208C139.26 58.9208 138.952 58.9861 138.663 59.1168C138.383 59.2381 138.131 59.4108 137.907 59.6348C137.692 59.8588 137.51 60.1248 137.361 60.4328C137.221 60.7408 137.123 61.0768 137.067 61.4408C137.282 61.4875 137.496 61.5201 137.711 61.5388C137.926 61.5575 138.168 61.5668 138.439 61.5668C139.232 61.5668 139.853 61.4595 140.301 61.2448C140.758 61.0208 140.987 60.6428 140.987 60.1108C140.987 59.7841 140.856 59.5041 140.595 59.2708C140.343 59.0375 140.007 58.9208 139.587 58.9208ZM162.814 57.8568C163.374 57.8568 163.86 57.9128 164.27 58.0248C164.69 58.1368 165.036 58.2488 165.306 58.3608L164.088 65.3888C163.976 66.0328 163.804 66.5555 163.57 66.9568C163.337 67.3675 163.071 67.6895 162.772 67.9228C162.474 68.1655 162.156 68.3288 161.82 68.4128C161.484 68.5061 161.153 68.5528 160.826 68.5528C160.192 68.5528 159.65 68.4221 159.202 68.1608C158.764 67.9088 158.404 67.6055 158.124 67.2508L159.104 66.5228C159.562 67.1481 160.164 67.4608 160.91 67.4608C161.377 67.4608 161.788 67.2881 162.142 66.9428C162.497 66.5975 162.749 66.0095 162.898 65.1788L163.136 63.8068C162.866 64.2268 162.539 64.5815 162.156 64.8708C161.774 65.1601 161.34 65.3048 160.854 65.3048C160.518 65.3048 160.192 65.2441 159.874 65.1228C159.557 64.9921 159.272 64.8055 159.02 64.5628C158.768 64.3201 158.568 64.0168 158.418 63.6528C158.269 63.2888 158.194 62.8735 158.194 62.4068C158.194 61.7348 158.311 61.1188 158.544 60.5588C158.778 59.9988 159.1 59.5181 159.51 59.1168C159.921 58.7155 160.406 58.4075 160.966 58.1928C161.536 57.9688 162.152 57.8568 162.814 57.8568ZM159.482 62.2668C159.482 62.5841 159.529 62.8641 159.622 63.1068C159.725 63.3401 159.856 63.5408 160.014 63.7088C160.173 63.8675 160.355 63.9888 160.56 64.0728C160.766 64.1475 160.976 64.1848 161.19 64.1848C161.452 64.1848 161.704 64.1148 161.946 63.9748C162.198 63.8255 162.427 63.6201 162.632 63.3588C162.847 63.0881 163.034 62.7661 163.192 62.3928C163.351 62.0195 163.472 61.5995 163.556 61.1328L163.92 59.1028C163.743 59.0468 163.556 59.0048 163.36 58.9768C163.164 58.9395 162.936 58.9208 162.674 58.9208C162.208 58.9208 161.778 59.0095 161.386 59.1868C160.994 59.3548 160.658 59.5881 160.378 59.8868C160.098 60.1855 159.879 60.5401 159.72 60.9508C159.562 61.3521 159.482 61.7908 159.482 62.2668ZM172.908 60.0688C172.918 60.0221 172.922 59.9708 172.922 59.9148C172.932 59.8495 172.936 59.7841 172.936 59.7188C172.936 59.4575 172.862 59.2755 172.712 59.1728C172.563 59.0608 172.367 59.0048 172.124 59.0048L172.558 58.0248C173.062 58.0248 173.445 58.1415 173.706 58.3748C173.968 58.6081 174.098 58.9628 174.098 59.4388V59.7188C174.369 59.0468 174.714 58.5708 175.134 58.2908C175.564 58.0015 176.049 57.8568 176.59 57.8568C176.805 57.8568 176.987 57.8755 177.136 57.9128C177.295 57.9408 177.426 57.9781 177.528 58.0248L176.968 59.2568C176.856 59.2101 176.74 59.1775 176.618 59.1588C176.497 59.1401 176.357 59.1308 176.198 59.1308C175.946 59.1308 175.694 59.1961 175.442 59.3268C175.19 59.4481 174.952 59.6581 174.728 59.9568C174.504 60.2555 174.299 60.6475 174.112 61.1328C173.926 61.6181 173.772 62.2201 173.65 62.9388L173.244 65.3048H171.984L172.908 60.0688ZM186.227 64.3528C186.647 64.3528 187.021 64.2735 187.347 64.1148C187.674 63.9561 187.954 63.7368 188.187 63.4568C188.421 63.1768 188.598 62.8501 188.719 62.4768C188.841 62.1035 188.901 61.6975 188.901 61.2588C188.901 60.9415 188.85 60.6428 188.747 60.3628C188.654 60.0828 188.514 59.8401 188.327 59.6348C188.15 59.4295 187.931 59.2708 187.669 59.1588C187.408 59.0375 187.109 58.9768 186.773 58.9768C186.363 58.9768 185.989 59.0561 185.653 59.2148C185.327 59.3735 185.047 59.5928 184.813 59.8728C184.58 60.1528 184.403 60.4841 184.281 60.8668C184.16 61.2401 184.099 61.6415 184.099 62.0708C184.099 62.3881 184.146 62.6868 184.239 62.9668C184.333 63.2468 184.468 63.4895 184.645 63.6948C184.832 63.9001 185.056 64.0635 185.317 64.1848C185.588 64.2968 185.891 64.3528 186.227 64.3528ZM186.185 65.4728C185.663 65.4728 185.191 65.3935 184.771 65.2348C184.361 65.0668 184.011 64.8381 183.721 64.5488C183.432 64.2595 183.208 63.9141 183.049 63.5128C182.891 63.1021 182.811 62.6588 182.811 62.1828C182.811 61.5761 182.905 61.0115 183.091 60.4888C183.278 59.9568 183.544 59.4995 183.889 59.1168C184.244 58.7248 184.669 58.4168 185.163 58.1928C185.658 57.9688 186.209 57.8568 186.815 57.8568C187.329 57.8568 187.795 57.9408 188.215 58.1088C188.635 58.2675 188.99 58.4915 189.279 58.7808C189.569 59.0701 189.793 59.4201 189.951 59.8308C190.11 60.2321 190.189 60.6708 190.189 61.1468C190.189 61.7535 190.096 62.3228 189.909 62.8548C189.723 63.3775 189.452 63.8348 189.097 64.2268C188.752 64.6095 188.332 64.9128 187.837 65.1368C187.343 65.3608 186.792 65.4728 186.185 65.4728ZM202.236 59.4948C201.993 59.3455 201.736 59.2241 201.466 59.1308C201.204 59.0281 200.91 58.9768 200.584 58.9768C200.192 58.9768 199.837 59.0561 199.52 59.2148C199.202 59.3735 198.932 59.5928 198.708 59.8728C198.484 60.1435 198.311 60.4655 198.19 60.8388C198.068 61.2121 198.008 61.6135 198.008 62.0428C198.008 62.7521 198.185 63.3168 198.54 63.7368C198.894 64.1475 199.38 64.3528 199.996 64.3528C200.35 64.3528 200.663 64.3108 200.934 64.2268C201.204 64.1428 201.452 64.0448 201.676 63.9328L201.83 65.0388C201.596 65.1415 201.312 65.2395 200.976 65.3328C200.649 65.4261 200.252 65.4728 199.786 65.4728C199.328 65.4728 198.913 65.3981 198.54 65.2488C198.166 65.0901 197.844 64.8661 197.574 64.5768C197.303 64.2875 197.093 63.9468 196.944 63.5548C196.794 63.1535 196.72 62.7055 196.72 62.2108C196.72 61.6228 196.808 61.0675 196.986 60.5448C197.172 60.0221 197.438 59.5601 197.784 59.1588C198.129 58.7575 198.544 58.4401 199.03 58.2068C199.515 57.9735 200.066 57.8568 200.682 57.8568C201.12 57.8568 201.508 57.9128 201.844 58.0248C202.18 58.1275 202.483 58.2581 202.754 58.4168L202.236 59.4948ZM211.59 65.4728C211.123 65.4728 210.699 65.3981 210.316 65.2488C209.933 65.0901 209.602 64.8708 209.322 64.5908C209.051 64.3015 208.837 63.9515 208.678 63.5408C208.529 63.1301 208.454 62.6681 208.454 62.1548C208.454 61.5761 208.547 61.0255 208.734 60.5028C208.921 59.9801 209.182 59.5228 209.518 59.1308C209.863 58.7388 210.279 58.4308 210.764 58.2068C211.249 57.9735 211.791 57.8568 212.388 57.8568C212.789 57.8568 213.149 57.9175 213.466 58.0388C213.783 58.1601 214.049 58.3188 214.264 58.5148C214.488 58.7108 214.656 58.9395 214.768 59.2008C214.889 59.4621 214.95 59.7328 214.95 60.0128C214.95 60.5355 214.824 60.9601 214.572 61.2868C214.329 61.6135 214.021 61.8748 213.648 62.0708C213.275 62.2575 212.864 62.3881 212.416 62.4628C211.968 62.5281 211.543 62.5608 211.142 62.5608C210.89 62.5608 210.638 62.5515 210.386 62.5328C210.143 62.5048 209.929 62.4768 209.742 62.4488C209.817 63.0648 210.031 63.5361 210.386 63.8628C210.75 64.1895 211.221 64.3528 211.8 64.3528C212.267 64.3528 212.682 64.2921 213.046 64.1708C213.41 64.0495 213.718 63.9281 213.97 63.8068L214.082 64.9268C213.802 65.0575 213.447 65.1835 213.018 65.3048C212.598 65.4168 212.122 65.4728 211.59 65.4728ZM212.29 58.9208C211.963 58.9208 211.655 58.9861 211.366 59.1168C211.086 59.2381 210.834 59.4108 210.61 59.6348C210.395 59.8588 210.213 60.1248 210.064 60.4328C209.924 60.7408 209.826 61.0768 209.77 61.4408C209.985 61.4875 210.199 61.5201 210.414 61.5388C210.629 61.5575 210.871 61.5668 211.142 61.5668C211.935 61.5668 212.556 61.4595 213.004 61.2448C213.461 61.0208 213.69 60.6428 213.69 60.1108C213.69 59.7841 213.559 59.5041 213.298 59.2708C213.046 59.0375 212.71 58.9208 212.29 58.9208ZM222.334 60.0688C222.343 60.0221 222.348 59.9708 222.348 59.9148C222.357 59.8495 222.362 59.7841 222.362 59.7188C222.362 59.4575 222.287 59.2755 222.138 59.1728C221.989 59.0608 221.793 59.0048 221.55 59.0048L221.984 58.0248C222.488 58.0248 222.871 58.1415 223.132 58.3748C223.393 58.6081 223.524 58.9628 223.524 59.4388V59.7188C223.795 59.0468 224.14 58.5708 224.56 58.2908C224.989 58.0015 225.475 57.8568 226.016 57.8568C226.231 57.8568 226.413 57.8755 226.562 57.9128C226.721 57.9408 226.851 57.9781 226.954 58.0248L226.394 59.2568C226.282 59.2101 226.165 59.1775 226.044 59.1588C225.923 59.1401 225.783 59.1308 225.624 59.1308C225.372 59.1308 225.12 59.1961 224.868 59.3268C224.616 59.4481 224.378 59.6581 224.154 59.9568C223.93 60.2555 223.725 60.6475 223.538 61.1328C223.351 61.6181 223.197 62.2201 223.076 62.9388L222.67 65.3048H221.41L222.334 60.0688ZM233.634 65.3048H232.374L233.648 58.0248H234.908L233.634 65.3048ZM234.572 56.7788C234.311 56.7788 234.11 56.7041 233.97 56.5548C233.839 56.3961 233.774 56.2141 233.774 56.0088C233.774 55.7101 233.867 55.4721 234.054 55.2948C234.241 55.1081 234.474 55.0148 234.754 55.0148C235.015 55.0148 235.211 55.0941 235.342 55.2528C235.482 55.4021 235.552 55.5795 235.552 55.7848C235.552 56.0835 235.459 56.3261 235.272 56.5128C235.085 56.6901 234.852 56.7788 234.572 56.7788ZM244.578 65.4728C244.112 65.4728 243.687 65.3981 243.304 65.2488C242.922 65.0901 242.59 64.8708 242.31 64.5908C242.04 64.3015 241.825 63.9515 241.666 63.5408C241.517 63.1301 241.442 62.6681 241.442 62.1548C241.442 61.5761 241.536 61.0255 241.722 60.5028C241.909 59.9801 242.17 59.5228 242.506 59.1308C242.852 58.7388 243.267 58.4308 243.752 58.2068C244.238 57.9735 244.779 57.8568 245.376 57.8568C245.778 57.8568 246.137 57.9175 246.454 58.0388C246.772 58.1601 247.038 58.3188 247.252 58.5148C247.476 58.7108 247.644 58.9395 247.756 59.2008C247.878 59.4621 247.938 59.7328 247.938 60.0128C247.938 60.5355 247.812 60.9601 247.56 61.2868C247.318 61.6135 247.01 61.8748 246.636 62.0708C246.263 62.2575 245.852 62.3881 245.404 62.4628C244.956 62.5281 244.532 62.5608 244.13 62.5608C243.878 62.5608 243.626 62.5515 243.374 62.5328C243.132 62.5048 242.917 62.4768 242.73 62.4488C242.805 63.0648 243.02 63.5361 243.374 63.8628C243.738 64.1895 244.21 64.3528 244.788 64.3528C245.255 64.3528 245.67 64.2921 246.034 64.1708C246.398 64.0495 246.706 63.9281 246.958 63.8068L247.07 64.9268C246.79 65.0575 246.436 65.1835 246.006 65.3048C245.586 65.4168 245.11 65.4728 244.578 65.4728ZM245.278 58.9208C244.952 58.9208 244.644 58.9861 244.354 59.1168C244.074 59.2381 243.822 59.4108 243.598 59.6348C243.384 59.8588 243.202 60.1248 243.052 60.4328C242.912 60.7408 242.814 61.0768 242.758 61.4408C242.973 61.4875 243.188 61.5201 243.402 61.5388C243.617 61.5575 243.86 61.5668 244.13 61.5668C244.924 61.5668 245.544 61.4595 245.992 61.2448C246.45 61.0208 246.678 60.6428 246.678 60.1108C246.678 59.7841 246.548 59.5041 246.286 59.2708C246.034 59.0375 245.698 58.9208 245.278 58.9208ZM254.44 58.2908H255.728L256.4 55.9948H257.366L256.96 58.2908H258.976L258.794 59.3828H256.764L256.176 62.7848C256.139 62.9715 256.12 63.1488 256.12 63.3168C256.12 63.6435 256.214 63.9001 256.4 64.0868C256.596 64.2641 256.858 64.3528 257.184 64.3528C257.455 64.3528 257.679 64.3155 257.856 64.2408C258.043 64.1568 258.216 64.0728 258.374 63.9888L258.528 65.0808C258.351 65.1835 258.127 65.2721 257.856 65.3468C257.595 65.4308 257.301 65.4728 256.974 65.4728C256.713 65.4728 256.456 65.4308 256.204 65.3468C255.952 65.2721 255.728 65.1555 255.532 64.9968C255.336 64.8288 255.178 64.6141 255.056 64.3528C254.935 64.0915 254.874 63.7788 254.874 63.4148C254.874 63.3121 254.879 63.2095 254.888 63.1068C254.898 62.9948 254.912 62.8688 254.93 62.7288L255.504 59.3828H254.258L254.44 58.2908Z" fill="white"/>
</svg>
