<svg width="303" height="215" viewBox="0 0 303 215" fill="none" xmlns="http://www.w3.org/2000/svg">
<path d="M6.24127 200.382C5.63327 200.382 5.06794 200.52 4.54527 200.798C4.03327 201.064 3.58527 201.443 3.20127 201.934C2.82794 202.414 2.53461 202.995 2.32127 203.678C2.10794 204.36 2.00127 205.107 2.00127 205.918C2.00127 206.419 2.05994 206.878 2.17727 207.294C2.30527 207.71 2.48127 208.067 2.70527 208.366C2.93994 208.664 3.22261 208.899 3.55327 209.07C3.89461 209.23 4.27861 209.31 4.70527 209.31C5.06794 209.31 5.41461 209.24 5.74527 209.102C6.07594 208.952 6.37461 208.755 6.64127 208.51C6.90794 208.254 7.13194 207.955 7.31327 207.614C7.49461 207.272 7.62261 206.899 7.69728 206.494L7.84128 205.71H5.50527L5.71327 204.51H9.47328L8.84927 208.11C8.83861 208.163 8.82794 208.227 8.81728 208.302C8.81728 208.366 8.81728 208.435 8.81728 208.51C8.81728 208.798 8.89727 209.006 9.05727 209.134C9.22794 209.262 9.46261 209.326 9.76128 209.326L9.23327 210.526C8.05994 210.526 7.47327 209.955 7.47327 208.814C7.14261 209.326 6.71594 209.758 6.19327 210.11C5.67061 210.462 5.03594 210.638 4.28927 210.638C3.73461 210.638 3.22261 210.536 2.75327 210.334C2.28394 210.131 1.87327 209.838 1.52127 209.454C1.17994 209.059 0.913274 208.584 0.721274 208.03C0.529274 207.464 0.433274 206.83 0.433274 206.126C0.433274 205.112 0.577274 204.174 0.865274 203.31C1.15327 202.446 1.55327 201.699 2.06527 201.07C2.58794 200.44 3.21194 199.95 3.93727 199.598C4.66261 199.235 5.45727 199.054 6.32127 199.054C7.00394 199.054 7.60127 199.15 8.11327 199.342C8.63594 199.523 9.12127 199.758 9.56927 200.046L8.76927 201.262C8.38527 200.995 7.99594 200.782 7.60127 200.622C7.21727 200.462 6.76394 200.382 6.24127 200.382ZM14.451 210.638C13.9177 210.638 13.4324 210.552 12.995 210.382C12.5577 210.2 12.179 209.95 11.859 209.63C11.5497 209.299 11.3044 208.899 11.123 208.43C10.9524 207.96 10.867 207.432 10.867 206.846C10.867 206.184 10.9737 205.555 11.187 204.958C11.4004 204.36 11.699 203.838 12.083 203.39C12.4777 202.942 12.9524 202.59 13.507 202.334C14.0617 202.067 14.6804 201.934 15.363 201.934C15.8217 201.934 16.2324 202.003 16.595 202.142C16.9577 202.28 17.2617 202.462 17.507 202.686C17.763 202.91 17.955 203.171 18.083 203.47C18.2217 203.768 18.291 204.078 18.291 204.398C18.291 204.995 18.147 205.48 17.859 205.854C17.5817 206.227 17.2297 206.526 16.803 206.75C16.3764 206.963 15.907 207.112 15.395 207.198C14.883 207.272 14.3977 207.31 13.939 207.31C13.651 207.31 13.363 207.299 13.075 207.278C12.7977 207.246 12.5524 207.214 12.339 207.182C12.4244 207.886 12.6697 208.424 13.075 208.798C13.491 209.171 14.0297 209.358 14.691 209.358C15.2244 209.358 15.699 209.288 16.115 209.15C16.531 209.011 16.883 208.872 17.171 208.734L17.299 210.014C16.979 210.163 16.5737 210.307 16.083 210.446C15.603 210.574 15.059 210.638 14.451 210.638ZM15.251 203.15C14.8777 203.15 14.5257 203.224 14.195 203.374C13.875 203.512 13.587 203.71 13.331 203.966C13.0857 204.222 12.8777 204.526 12.707 204.878C12.547 205.23 12.435 205.614 12.371 206.03C12.6164 206.083 12.8617 206.12 13.107 206.142C13.3524 206.163 13.6297 206.174 13.939 206.174C14.8457 206.174 15.555 206.051 16.067 205.806C16.5897 205.55 16.851 205.118 16.851 204.51C16.851 204.136 16.7017 203.816 16.403 203.55C16.115 203.283 15.731 203.15 15.251 203.15ZM20.4443 204.462C20.4549 204.408 20.4603 204.35 20.4603 204.286C20.4709 204.211 20.4763 204.136 20.4763 204.062C20.4763 203.763 20.3909 203.555 20.2203 203.438C20.0496 203.31 19.8256 203.246 19.5483 203.246L20.0443 202.126C20.6203 202.126 21.0576 202.259 21.3563 202.526C21.6549 202.792 21.8043 203.198 21.8043 203.742V204.062C22.1136 203.294 22.5083 202.75 22.9883 202.43C23.4789 202.099 24.0336 201.934 24.6523 201.934C24.8976 201.934 25.1056 201.955 25.2763 201.998C25.4576 202.03 25.6069 202.072 25.7243 202.126L25.0843 203.534C24.9563 203.48 24.8229 203.443 24.6843 203.422C24.5456 203.4 24.3856 203.39 24.2043 203.39C23.9163 203.39 23.6283 203.464 23.3403 203.614C23.0523 203.752 22.7803 203.992 22.5243 204.334C22.2683 204.675 22.0336 205.123 21.8203 205.678C21.6069 206.232 21.4309 206.92 21.2923 207.742L20.8283 210.446H19.3883L20.4443 204.462ZM33.4375 209.166C33.7362 209.166 34.0349 209.096 34.3335 208.958C34.6322 208.808 34.9095 208.595 35.1655 208.318C35.4322 208.04 35.6615 207.699 35.8535 207.294C36.0455 206.888 36.1895 206.424 36.2855 205.902L36.9415 202.126H38.3815L36.9255 210.542C36.7975 211.278 36.6002 211.875 36.3335 212.334C36.0669 212.803 35.7629 213.171 35.4215 213.438C35.0802 213.715 34.7175 213.902 34.3335 213.998C33.9495 214.104 33.5709 214.158 33.1975 214.158C32.4722 214.158 31.8535 214.008 31.3415 213.71C30.8402 213.422 30.4295 213.075 30.1095 212.67L31.2295 211.838C31.7522 212.552 32.4402 212.91 33.2935 212.91C33.8269 212.91 34.2962 212.712 34.7015 212.318C35.1069 211.923 35.3949 211.251 35.5655 210.302L35.8695 208.606C35.5495 209.118 35.1442 209.555 34.6535 209.918C34.1629 210.27 33.5975 210.446 32.9575 210.446C32.6375 210.446 32.3389 210.392 32.0615 210.286C31.7842 210.179 31.5389 210.024 31.3255 209.822C31.1122 209.619 30.9415 209.374 30.8135 209.086C30.6962 208.798 30.6375 208.472 30.6375 208.11C30.6375 207.992 30.6429 207.859 30.6535 207.71C30.6642 207.56 30.6802 207.4 30.7015 207.23L31.5655 202.126H33.0055L32.1255 207.198C32.0935 207.39 32.0775 207.571 32.0775 207.742C32.0775 208.222 32.2109 208.579 32.4775 208.814C32.7442 209.048 33.0642 209.166 33.4375 209.166ZM43.3023 209.358C43.7823 209.358 44.2089 209.267 44.5823 209.086C44.9556 208.904 45.2756 208.654 45.5423 208.334C45.8089 208.014 46.0116 207.64 46.1503 207.214C46.2889 206.787 46.3583 206.323 46.3583 205.822C46.3583 205.459 46.2996 205.118 46.1823 204.798C46.0756 204.478 45.9156 204.2 45.7023 203.966C45.4996 203.731 45.2489 203.55 44.9503 203.422C44.6516 203.283 44.3103 203.214 43.9263 203.214C43.4569 203.214 43.0303 203.304 42.6463 203.486C42.2729 203.667 41.9529 203.918 41.6863 204.238C41.4196 204.558 41.2169 204.936 41.0783 205.374C40.9396 205.8 40.8703 206.259 40.8703 206.75C40.8703 207.112 40.9236 207.454 41.0303 207.774C41.1369 208.094 41.2916 208.371 41.4943 208.606C41.7076 208.84 41.9636 209.027 42.2623 209.166C42.5716 209.294 42.9183 209.358 43.3023 209.358ZM43.2543 210.638C42.6569 210.638 42.1183 210.547 41.6383 210.366C41.1689 210.174 40.7689 209.912 40.4383 209.582C40.1076 209.251 39.8516 208.856 39.6703 208.398C39.4889 207.928 39.3983 207.422 39.3983 206.878C39.3983 206.184 39.5049 205.539 39.7183 204.942C39.9316 204.334 40.2356 203.811 40.6303 203.374C41.0356 202.926 41.5209 202.574 42.0863 202.318C42.6516 202.062 43.2809 201.934 43.9743 201.934C44.5609 201.934 45.0943 202.03 45.5743 202.222C46.0543 202.403 46.4596 202.659 46.7903 202.99C47.1209 203.32 47.3769 203.72 47.5583 204.19C47.7396 204.648 47.8303 205.15 47.8303 205.694C47.8303 206.387 47.7236 207.038 47.5103 207.646C47.2969 208.243 46.9876 208.766 46.5823 209.214C46.1876 209.651 45.7076 209.998 45.1423 210.254C44.5769 210.51 43.9476 210.638 43.2543 210.638ZM51.5196 210.638C51.1996 210.638 50.8956 210.584 50.6076 210.478C50.3303 210.371 50.0796 210.216 49.8556 210.014C49.6423 209.811 49.4716 209.566 49.3436 209.278C49.2263 208.99 49.1676 208.664 49.1676 208.302C49.1676 208.163 49.173 208.024 49.1836 207.886C49.1943 207.736 49.2103 207.582 49.2316 207.422L50.1436 202.126H51.5836L50.6556 207.39C50.6343 207.496 50.6183 207.592 50.6076 207.678C50.6076 207.752 50.6076 207.838 50.6076 207.934C50.6076 208.414 50.7463 208.771 51.0236 209.006C51.301 209.24 51.6263 209.358 51.9996 209.358C52.2983 209.358 52.597 209.288 52.8956 209.15C53.205 209 53.4876 208.792 53.7436 208.526C53.9996 208.259 54.2236 207.934 54.4156 207.55C54.6183 207.155 54.7623 206.707 54.8476 206.206L55.5676 202.126H57.0076L55.9516 208.19C55.941 208.243 55.9303 208.307 55.9196 208.382C55.9196 208.446 55.9196 208.515 55.9196 208.59C55.9196 208.888 56.005 209.102 56.1756 209.23C56.3463 209.347 56.5703 209.406 56.8476 209.406L56.3516 210.526C55.7756 210.526 55.333 210.387 55.0236 210.11C54.725 209.832 54.5756 209.39 54.5756 208.782V208.638C53.797 209.971 52.7783 210.638 51.5196 210.638ZM59.5693 204.462C59.5799 204.408 59.5853 204.35 59.5853 204.286C59.5959 204.211 59.6013 204.136 59.6013 204.062C59.6013 203.763 59.5159 203.555 59.3453 203.438C59.1746 203.31 58.9506 203.246 58.6733 203.246L59.1693 202.126C59.7453 202.126 60.1826 202.259 60.4813 202.526C60.7799 202.792 60.9293 203.198 60.9293 203.742V204.062C61.2386 203.294 61.6333 202.75 62.1133 202.43C62.6039 202.099 63.1586 201.934 63.7773 201.934C64.0226 201.934 64.2306 201.955 64.4013 201.998C64.5826 202.03 64.7319 202.072 64.8493 202.126L64.2093 203.534C64.0813 203.48 63.9479 203.443 63.8093 203.422C63.6706 203.4 63.5106 203.39 63.3293 203.39C63.0413 203.39 62.7533 203.464 62.4653 203.614C62.1773 203.752 61.9053 203.992 61.6493 204.334C61.3933 204.675 61.1586 205.123 60.9453 205.678C60.7319 206.232 60.5559 206.92 60.4173 207.742L59.9533 210.446H58.5133L59.5693 204.462ZM74.8345 201.934C75.4745 201.934 76.0292 201.998 76.4985 202.126C76.9785 202.254 77.3732 202.382 77.6825 202.51L76.2905 210.542C76.1625 211.278 75.9652 211.875 75.6985 212.334C75.4319 212.803 75.1279 213.171 74.7865 213.438C74.4452 213.715 74.0825 213.902 73.6985 213.998C73.3145 214.104 72.9359 214.158 72.5625 214.158C71.8372 214.158 71.2185 214.008 70.7065 213.71C70.2052 213.422 69.7945 213.075 69.4745 212.67L70.5945 211.838C71.1172 212.552 71.8052 212.91 72.6585 212.91C73.1919 212.91 73.6612 212.712 74.0665 212.318C74.4719 211.923 74.7599 211.251 74.9305 210.302L75.2025 208.734C74.8932 209.214 74.5199 209.619 74.0825 209.95C73.6452 210.28 73.1492 210.446 72.5945 210.446C72.2105 210.446 71.8372 210.376 71.4745 210.238C71.1119 210.088 70.7865 209.875 70.4985 209.598C70.2105 209.32 69.9812 208.974 69.8105 208.558C69.6399 208.142 69.5545 207.667 69.5545 207.134C69.5545 206.366 69.6879 205.662 69.9545 205.022C70.2212 204.382 70.5892 203.832 71.0585 203.374C71.5279 202.915 72.0825 202.563 72.7225 202.318C73.3732 202.062 74.0772 201.934 74.8345 201.934ZM71.0265 206.974C71.0265 207.336 71.0799 207.656 71.1865 207.934C71.3039 208.2 71.4532 208.43 71.6345 208.622C71.8159 208.803 72.0239 208.942 72.2585 209.038C72.4932 209.123 72.7332 209.166 72.9785 209.166C73.2772 209.166 73.5652 209.086 73.8425 208.926C74.1305 208.755 74.3919 208.52 74.6265 208.222C74.8719 207.912 75.0852 207.544 75.2665 207.118C75.4479 206.691 75.5865 206.211 75.6825 205.678L76.0985 203.358C75.8959 203.294 75.6825 203.246 75.4585 203.214C75.2345 203.171 74.9732 203.15 74.6745 203.15C74.1412 203.15 73.6505 203.251 73.2025 203.454C72.7545 203.646 72.3705 203.912 72.0505 204.254C71.7305 204.595 71.4799 205 71.2985 205.47C71.1172 205.928 71.0265 206.43 71.0265 206.974ZM80.0849 204.462C80.0956 204.408 80.1009 204.35 80.1009 204.286C80.1116 204.211 80.1169 204.136 80.1169 204.062C80.1169 203.763 80.0316 203.555 79.8609 203.438C79.6902 203.31 79.4662 203.246 79.1889 203.246L79.6849 202.126C80.2609 202.126 80.6982 202.259 80.9969 202.526C81.2956 202.792 81.4449 203.198 81.4449 203.742V204.062C81.7542 203.294 82.1489 202.75 82.6289 202.43C83.1196 202.099 83.6742 201.934 84.2929 201.934C84.5382 201.934 84.7462 201.955 84.9169 201.998C85.0982 202.03 85.2476 202.072 85.3649 202.126L84.7249 203.534C84.5969 203.48 84.4636 203.443 84.3249 203.422C84.1862 203.4 84.0262 203.39 83.8449 203.39C83.5569 203.39 83.2689 203.464 82.9809 203.614C82.6929 203.752 82.4209 203.992 82.1649 204.334C81.9089 204.675 81.6742 205.123 81.4609 205.678C81.2476 206.232 81.0716 206.92 80.9329 207.742L80.4689 210.446H79.0289L80.0849 204.462ZM89.021 209.358C89.501 209.358 89.9277 209.267 90.301 209.086C90.6744 208.904 90.9944 208.654 91.261 208.334C91.5277 208.014 91.7304 207.64 91.869 207.214C92.0077 206.787 92.077 206.323 92.077 205.822C92.077 205.459 92.0184 205.118 91.901 204.798C91.7944 204.478 91.6344 204.2 91.421 203.966C91.2184 203.731 90.9677 203.55 90.669 203.422C90.3704 203.283 90.029 203.214 89.645 203.214C89.1757 203.214 88.749 203.304 88.365 203.486C87.9917 203.667 87.6717 203.918 87.405 204.238C87.1384 204.558 86.9357 204.936 86.797 205.374C86.6584 205.8 86.589 206.259 86.589 206.75C86.589 207.112 86.6424 207.454 86.749 207.774C86.8557 208.094 87.0104 208.371 87.213 208.606C87.4264 208.84 87.6824 209.027 87.981 209.166C88.2904 209.294 88.637 209.358 89.021 209.358ZM88.973 210.638C88.3757 210.638 87.837 210.547 87.357 210.366C86.8877 210.174 86.4877 209.912 86.157 209.582C85.8264 209.251 85.5704 208.856 85.389 208.398C85.2077 207.928 85.117 207.422 85.117 206.878C85.117 206.184 85.2237 205.539 85.437 204.942C85.6504 204.334 85.9544 203.811 86.349 203.374C86.7544 202.926 87.2397 202.574 87.805 202.318C88.3704 202.062 88.9997 201.934 89.693 201.934C90.2797 201.934 90.813 202.03 91.293 202.222C91.773 202.403 92.1784 202.659 92.509 202.99C92.8397 203.32 93.0957 203.72 93.277 204.19C93.4584 204.648 93.549 205.15 93.549 205.694C93.549 206.387 93.4424 207.038 93.229 207.646C93.0157 208.243 92.7064 208.766 92.301 209.214C91.9064 209.651 91.4264 209.998 90.861 210.254C90.2957 210.51 89.6664 210.638 88.973 210.638ZM101.03 203.806C100.753 203.635 100.46 203.496 100.15 203.39C99.8517 203.272 99.5157 203.214 99.1424 203.214C98.6944 203.214 98.2891 203.304 97.9264 203.486C97.5637 203.667 97.2544 203.918 96.9984 204.238C96.7424 204.547 96.5451 204.915 96.4064 205.342C96.2677 205.768 96.1984 206.227 96.1984 206.718C96.1984 207.528 96.4011 208.174 96.8064 208.654C97.2117 209.123 97.7664 209.358 98.4704 209.358C98.8757 209.358 99.2331 209.31 99.5424 209.214C99.8517 209.118 100.134 209.006 100.39 208.878L100.566 210.142C100.3 210.259 99.9744 210.371 99.5904 210.478C99.2171 210.584 98.7637 210.638 98.2304 210.638C97.7077 210.638 97.2331 210.552 96.8064 210.382C96.3797 210.2 96.0117 209.944 95.7024 209.614C95.3931 209.283 95.1531 208.894 94.9824 208.446C94.8117 207.987 94.7264 207.475 94.7264 206.91C94.7264 206.238 94.8277 205.603 95.0304 205.006C95.2437 204.408 95.5477 203.88 95.9424 203.422C96.3371 202.963 96.8117 202.6 97.3664 202.334C97.9211 202.067 98.5504 201.934 99.2544 201.934C99.7557 201.934 100.198 201.998 100.582 202.126C100.966 202.243 101.313 202.392 101.622 202.574L101.03 203.806ZM105.435 210.638C104.902 210.638 104.417 210.552 103.979 210.382C103.542 210.2 103.163 209.95 102.843 209.63C102.534 209.299 102.289 208.899 102.107 208.43C101.937 207.96 101.851 207.432 101.851 206.846C101.851 206.184 101.958 205.555 102.171 204.958C102.385 204.36 102.683 203.838 103.067 203.39C103.462 202.942 103.937 202.59 104.491 202.334C105.046 202.067 105.665 201.934 106.347 201.934C106.806 201.934 107.217 202.003 107.579 202.142C107.942 202.28 108.246 202.462 108.491 202.686C108.747 202.91 108.939 203.171 109.067 203.47C109.206 203.768 109.275 204.078 109.275 204.398C109.275 204.995 109.131 205.48 108.843 205.854C108.566 206.227 108.214 206.526 107.787 206.75C107.361 206.963 106.891 207.112 106.379 207.198C105.867 207.272 105.382 207.31 104.923 207.31C104.635 207.31 104.347 207.299 104.059 207.278C103.782 207.246 103.537 207.214 103.323 207.182C103.409 207.886 103.654 208.424 104.059 208.798C104.475 209.171 105.014 209.358 105.675 209.358C106.209 209.358 106.683 209.288 107.099 209.15C107.515 209.011 107.867 208.872 108.155 208.734L108.283 210.014C107.963 210.163 107.558 210.307 107.067 210.446C106.587 210.574 106.043 210.638 105.435 210.638ZM106.235 203.15C105.862 203.15 105.51 203.224 105.179 203.374C104.859 203.512 104.571 203.71 104.315 203.966C104.07 204.222 103.862 204.526 103.691 204.878C103.531 205.23 103.419 205.614 103.355 206.03C103.601 206.083 103.846 206.12 104.091 206.142C104.337 206.163 104.614 206.174 104.923 206.174C105.83 206.174 106.539 206.051 107.051 205.806C107.574 205.55 107.835 205.118 107.835 204.51C107.835 204.136 107.686 203.816 107.387 203.55C107.099 203.283 106.715 203.15 106.235 203.15ZM111.429 204.462C111.439 204.408 111.445 204.35 111.445 204.286C111.455 204.211 111.461 204.136 111.461 204.062C111.461 203.763 111.375 203.555 111.205 203.438C111.034 203.31 110.81 203.246 110.533 203.246L111.029 202.126C111.605 202.126 112.042 202.259 112.341 202.526C112.639 202.792 112.789 203.198 112.789 203.742V204.062C113.098 203.294 113.493 202.75 113.973 202.43C114.463 202.099 115.018 201.934 115.637 201.934C115.882 201.934 116.09 201.955 116.261 201.998C116.442 202.03 116.591 202.072 116.709 202.126L116.069 203.534C115.941 203.48 115.807 203.443 115.669 203.422C115.53 203.4 115.37 203.39 115.189 203.39C114.901 203.39 114.613 203.464 114.325 203.614C114.037 203.752 113.765 203.992 113.509 204.334C113.253 204.675 113.018 205.123 112.805 205.678C112.591 206.232 112.415 206.92 112.277 207.742L111.813 210.446H110.373L111.429 204.462ZM118.057 210.446H116.617L118.073 202.126H119.513L118.057 210.446ZM119.129 200.702C118.83 200.702 118.601 200.616 118.441 200.446C118.292 200.264 118.217 200.056 118.217 199.822C118.217 199.48 118.324 199.208 118.537 199.006C118.75 198.792 119.017 198.686 119.337 198.686C119.636 198.686 119.86 198.776 120.009 198.958C120.169 199.128 120.249 199.331 120.249 199.566C120.249 199.907 120.142 200.184 119.929 200.398C119.716 200.6 119.449 200.702 119.129 200.702ZM124.279 210.638C123.746 210.638 123.26 210.552 122.823 210.382C122.386 210.2 122.007 209.95 121.687 209.63C121.378 209.299 121.132 208.899 120.951 208.43C120.78 207.96 120.695 207.432 120.695 206.846C120.695 206.184 120.802 205.555 121.015 204.958C121.228 204.36 121.527 203.838 121.911 203.39C122.306 202.942 122.78 202.59 123.335 202.334C123.89 202.067 124.508 201.934 125.191 201.934C125.65 201.934 126.06 202.003 126.423 202.142C126.786 202.28 127.09 202.462 127.335 202.686C127.591 202.91 127.783 203.171 127.911 203.47C128.05 203.768 128.119 204.078 128.119 204.398C128.119 204.995 127.975 205.48 127.687 205.854C127.41 206.227 127.058 206.526 126.631 206.75C126.204 206.963 125.735 207.112 125.223 207.198C124.711 207.272 124.226 207.31 123.767 207.31C123.479 207.31 123.191 207.299 122.903 207.278C122.626 207.246 122.38 207.214 122.167 207.182C122.252 207.886 122.498 208.424 122.903 208.798C123.319 209.171 123.858 209.358 124.519 209.358C125.052 209.358 125.527 209.288 125.943 209.15C126.359 209.011 126.711 208.872 126.999 208.734L127.127 210.014C126.807 210.163 126.402 210.307 125.911 210.446C125.431 210.574 124.887 210.638 124.279 210.638ZM125.079 203.15C124.706 203.15 124.354 203.224 124.023 203.374C123.703 203.512 123.415 203.71 123.159 203.966C122.914 204.222 122.706 204.526 122.535 204.878C122.375 205.23 122.263 205.614 122.199 206.03C122.444 206.083 122.69 206.12 122.935 206.142C123.18 206.163 123.458 206.174 123.767 206.174C124.674 206.174 125.383 206.051 125.895 205.806C126.418 205.55 126.679 205.118 126.679 204.51C126.679 204.136 126.53 203.816 126.231 203.55C125.943 203.283 125.559 203.15 125.079 203.15ZM134.8 203.934C134.491 203.72 134.144 203.534 133.76 203.374C133.387 203.214 132.96 203.134 132.48 203.134C131.968 203.134 131.574 203.219 131.296 203.39C131.03 203.56 130.896 203.784 130.896 204.062C130.896 204.19 130.918 204.307 130.96 204.414C131.014 204.52 131.099 204.632 131.216 204.75C131.344 204.856 131.515 204.974 131.728 205.102C131.942 205.23 132.214 205.379 132.544 205.55C133.28 205.923 133.819 206.302 134.16 206.686C134.512 207.059 134.688 207.534 134.688 208.11C134.688 208.536 134.603 208.91 134.432 209.23C134.262 209.539 134.022 209.8 133.712 210.014C133.414 210.216 133.062 210.371 132.656 210.478C132.251 210.584 131.814 210.638 131.344 210.638C130.694 210.638 130.118 210.558 129.616 210.398C129.126 210.227 128.699 210.008 128.336 209.742L129.152 208.558C129.44 208.792 129.776 208.99 130.16 209.15C130.555 209.31 130.992 209.39 131.472 209.39C132.016 209.39 132.438 209.288 132.736 209.086C133.046 208.883 133.2 208.632 133.2 208.334C133.2 208.195 133.174 208.067 133.12 207.95C133.078 207.822 132.992 207.694 132.864 207.566C132.736 207.438 132.56 207.31 132.336 207.182C132.123 207.043 131.851 206.888 131.52 206.718C131.115 206.515 130.779 206.323 130.512 206.142C130.256 205.95 130.048 205.752 129.888 205.55C129.739 205.347 129.632 205.134 129.568 204.91C129.504 204.675 129.472 204.419 129.472 204.142C129.472 203.822 129.547 203.528 129.696 203.262C129.846 202.984 130.054 202.75 130.32 202.558C130.587 202.366 130.907 202.216 131.28 202.11C131.654 201.992 132.064 201.934 132.512 201.934C133.11 201.934 133.643 202.014 134.112 202.174C134.592 202.323 135.014 202.504 135.376 202.718L134.8 203.934ZM142.323 210.446H140.883L142.339 202.126H143.779L142.323 210.446ZM143.395 200.702C143.096 200.702 142.867 200.616 142.707 200.446C142.557 200.264 142.483 200.056 142.483 199.822C142.483 199.48 142.589 199.208 142.803 199.006C143.016 198.792 143.283 198.686 143.603 198.686C143.901 198.686 144.125 198.776 144.275 198.958C144.435 199.128 144.515 199.331 144.515 199.566C144.515 199.907 144.408 200.184 144.195 200.398C143.981 200.6 143.715 200.702 143.395 200.702ZM150.193 203.198C149.915 203.198 149.611 203.278 149.281 203.438C148.961 203.587 148.646 203.822 148.337 204.142C148.038 204.462 147.766 204.872 147.521 205.374C147.275 205.864 147.094 206.451 146.977 207.134L146.401 210.446H144.961L146.417 202.126H147.809L147.457 204.046C147.787 203.406 148.23 202.894 148.785 202.51C149.339 202.126 149.931 201.934 150.561 201.934C150.923 201.934 151.254 201.992 151.553 202.11C151.851 202.227 152.102 202.392 152.305 202.606C152.518 202.808 152.678 203.048 152.785 203.326C152.902 203.603 152.961 203.902 152.961 204.222C152.961 204.499 152.929 204.835 152.865 205.23L151.953 210.446H150.513L151.393 205.47C151.446 205.214 151.478 205.027 151.489 204.91C151.499 204.792 151.505 204.675 151.505 204.558C151.505 204.142 151.382 203.811 151.137 203.566C150.902 203.32 150.587 203.198 150.193 203.198ZM159.18 207.166C159.18 206.398 159.308 205.694 159.564 205.054C159.83 204.403 160.198 203.848 160.668 203.39C161.137 202.931 161.697 202.574 162.348 202.318C162.998 202.062 163.708 201.934 164.476 201.934C165.105 201.934 165.654 201.998 166.124 202.126C166.604 202.254 166.998 202.382 167.308 202.51L166.3 208.19C166.289 208.243 166.278 208.307 166.268 208.382C166.268 208.446 166.268 208.515 166.268 208.59C166.268 208.888 166.353 209.102 166.524 209.23C166.694 209.347 166.918 209.406 167.196 209.406L166.7 210.526C166.124 210.526 165.681 210.387 165.372 210.11C165.073 209.832 164.924 209.39 164.924 208.782C164.625 209.294 164.246 209.731 163.788 210.094C163.34 210.456 162.812 210.638 162.204 210.638C161.809 210.638 161.43 210.558 161.068 210.398C160.705 210.238 160.38 210.008 160.092 209.71C159.814 209.411 159.59 209.048 159.42 208.622C159.26 208.184 159.18 207.699 159.18 207.166ZM165.724 203.358C165.521 203.294 165.308 203.246 165.084 203.214C164.87 203.171 164.609 203.15 164.3 203.15C163.745 203.15 163.244 203.246 162.796 203.438C162.348 203.63 161.964 203.896 161.644 204.238C161.324 204.579 161.078 204.984 160.908 205.454C160.737 205.923 160.652 206.435 160.652 206.99C160.652 207.374 160.705 207.715 160.812 208.014C160.929 208.302 161.078 208.547 161.26 208.75C161.441 208.952 161.644 209.107 161.868 209.214C162.102 209.31 162.342 209.358 162.588 209.358C162.908 209.358 163.212 209.272 163.5 209.102C163.798 208.931 164.065 208.691 164.3 208.382C164.534 208.062 164.737 207.688 164.908 207.262C165.078 206.824 165.206 206.35 165.292 205.838L165.724 203.358ZM174.472 203.934C174.163 203.72 173.816 203.534 173.432 203.374C173.059 203.214 172.632 203.134 172.152 203.134C171.64 203.134 171.246 203.219 170.968 203.39C170.702 203.56 170.568 203.784 170.568 204.062C170.568 204.19 170.59 204.307 170.632 204.414C170.686 204.52 170.771 204.632 170.888 204.75C171.016 204.856 171.187 204.974 171.4 205.102C171.614 205.23 171.886 205.379 172.216 205.55C172.952 205.923 173.491 206.302 173.832 206.686C174.184 207.059 174.36 207.534 174.36 208.11C174.36 208.536 174.275 208.91 174.104 209.23C173.934 209.539 173.694 209.8 173.384 210.014C173.086 210.216 172.734 210.371 172.328 210.478C171.923 210.584 171.486 210.638 171.016 210.638C170.366 210.638 169.79 210.558 169.288 210.398C168.798 210.227 168.371 210.008 168.008 209.742L168.824 208.558C169.112 208.792 169.448 208.99 169.832 209.15C170.227 209.31 170.664 209.39 171.144 209.39C171.688 209.39 172.11 209.288 172.408 209.086C172.718 208.883 172.872 208.632 172.872 208.334C172.872 208.195 172.846 208.067 172.792 207.95C172.75 207.822 172.664 207.694 172.536 207.566C172.408 207.438 172.232 207.31 172.008 207.182C171.795 207.043 171.523 206.888 171.192 206.718C170.787 206.515 170.451 206.323 170.184 206.142C169.928 205.95 169.72 205.752 169.56 205.55C169.411 205.347 169.304 205.134 169.24 204.91C169.176 204.675 169.144 204.419 169.144 204.142C169.144 203.822 169.219 203.528 169.368 203.262C169.518 202.984 169.726 202.75 169.992 202.558C170.259 202.366 170.579 202.216 170.952 202.11C171.326 201.992 171.736 201.934 172.184 201.934C172.782 201.934 173.315 202.014 173.784 202.174C174.264 202.323 174.686 202.504 175.048 202.718L174.472 203.934ZM183.851 202.43H186.315L186.091 203.678H183.627L182.219 211.598C182.133 212.067 182.011 212.462 181.851 212.782C181.691 213.112 181.499 213.379 181.275 213.582C181.051 213.784 180.795 213.928 180.507 214.014C180.219 214.11 179.909 214.158 179.579 214.158C179.227 214.158 178.907 214.11 178.619 214.014C178.32 213.918 178.059 213.784 177.835 213.614L178.411 212.43C178.56 212.579 178.736 212.696 178.939 212.782C179.131 212.867 179.349 212.91 179.595 212.91C179.883 212.91 180.128 212.808 180.331 212.606C180.544 212.403 180.693 212.078 180.779 211.63L182.187 203.678H180.907L181.131 202.43H182.411L182.651 201.15C182.832 200.168 183.179 199.47 183.691 199.054C184.203 198.627 184.859 198.414 185.659 198.414C186.096 198.414 186.501 198.472 186.875 198.59C187.248 198.696 187.584 198.83 187.883 198.99L187.323 200.206C187.077 200.078 186.821 199.96 186.555 199.854C186.299 199.747 185.995 199.694 185.643 199.694C185.248 199.694 184.912 199.811 184.635 200.046C184.357 200.27 184.176 200.622 184.091 201.102L183.851 202.43ZM186.273 207.166C186.273 206.398 186.401 205.694 186.657 205.054C186.924 204.403 187.292 203.848 187.761 203.39C188.231 202.931 188.791 202.574 189.441 202.318C190.092 202.062 190.801 201.934 191.569 201.934C192.199 201.934 192.748 201.998 193.217 202.126C193.697 202.254 194.092 202.382 194.401 202.51L193.393 208.19C193.383 208.243 193.372 208.307 193.361 208.382C193.361 208.446 193.361 208.515 193.361 208.59C193.361 208.888 193.447 209.102 193.617 209.23C193.788 209.347 194.012 209.406 194.289 209.406L193.793 210.526C193.217 210.526 192.775 210.387 192.465 210.11C192.167 209.832 192.017 209.39 192.017 208.782C191.719 209.294 191.34 209.731 190.881 210.094C190.433 210.456 189.905 210.638 189.297 210.638C188.903 210.638 188.524 210.558 188.161 210.398C187.799 210.238 187.473 210.008 187.185 209.71C186.908 209.411 186.684 209.048 186.513 208.622C186.353 208.184 186.273 207.699 186.273 207.166ZM192.817 203.358C192.615 203.294 192.401 203.246 192.177 203.214C191.964 203.171 191.703 203.15 191.393 203.15C190.839 203.15 190.337 203.246 189.889 203.438C189.441 203.63 189.057 203.896 188.737 204.238C188.417 204.579 188.172 204.984 188.001 205.454C187.831 205.923 187.745 206.435 187.745 206.99C187.745 207.374 187.799 207.715 187.905 208.014C188.023 208.302 188.172 208.547 188.353 208.75C188.535 208.952 188.737 209.107 188.961 209.214C189.196 209.31 189.436 209.358 189.681 209.358C190.001 209.358 190.305 209.272 190.593 209.102C190.892 208.931 191.159 208.691 191.393 208.382C191.628 208.062 191.831 207.688 192.001 207.262C192.172 206.824 192.3 206.35 192.385 205.838L192.817 203.358ZM201.566 203.934C201.257 203.72 200.91 203.534 200.526 203.374C200.153 203.214 199.726 203.134 199.246 203.134C198.734 203.134 198.339 203.219 198.062 203.39C197.795 203.56 197.662 203.784 197.662 204.062C197.662 204.19 197.683 204.307 197.726 204.414C197.779 204.52 197.865 204.632 197.982 204.75C198.11 204.856 198.281 204.974 198.494 205.102C198.707 205.23 198.979 205.379 199.31 205.55C200.046 205.923 200.585 206.302 200.926 206.686C201.278 207.059 201.454 207.534 201.454 208.11C201.454 208.536 201.369 208.91 201.198 209.23C201.027 209.539 200.787 209.8 200.478 210.014C200.179 210.216 199.827 210.371 199.422 210.478C199.017 210.584 198.579 210.638 198.11 210.638C197.459 210.638 196.883 210.558 196.382 210.398C195.891 210.227 195.465 210.008 195.102 209.742L195.918 208.558C196.206 208.792 196.542 208.99 196.926 209.15C197.321 209.31 197.758 209.39 198.238 209.39C198.782 209.39 199.203 209.288 199.502 209.086C199.811 208.883 199.966 208.632 199.966 208.334C199.966 208.195 199.939 208.067 199.886 207.95C199.843 207.822 199.758 207.694 199.63 207.566C199.502 207.438 199.326 207.31 199.102 207.182C198.889 207.043 198.617 206.888 198.286 206.718C197.881 206.515 197.545 206.323 197.278 206.142C197.022 205.95 196.814 205.752 196.654 205.55C196.505 205.347 196.398 205.134 196.334 204.91C196.27 204.675 196.238 204.419 196.238 204.142C196.238 203.822 196.313 203.528 196.462 203.262C196.611 202.984 196.819 202.75 197.086 202.558C197.353 202.366 197.673 202.216 198.046 202.11C198.419 201.992 198.83 201.934 199.278 201.934C199.875 201.934 200.409 202.014 200.878 202.174C201.358 202.323 201.779 202.504 202.142 202.718L201.566 203.934ZM203.139 202.43H204.611L205.379 199.806H206.483L206.019 202.43H208.323L208.115 203.678H205.795L205.123 207.566C205.081 207.779 205.059 207.982 205.059 208.174C205.059 208.547 205.166 208.84 205.379 209.054C205.603 209.256 205.902 209.358 206.275 209.358C206.585 209.358 206.841 209.315 207.043 209.23C207.257 209.134 207.454 209.038 207.635 208.942L207.811 210.19C207.609 210.307 207.353 210.408 207.043 210.494C206.745 210.59 206.409 210.638 206.035 210.638C205.737 210.638 205.443 210.59 205.155 210.494C204.867 210.408 204.611 210.275 204.387 210.094C204.163 209.902 203.982 209.656 203.843 209.358C203.705 209.059 203.635 208.702 203.635 208.286C203.635 208.168 203.641 208.051 203.651 207.934C203.662 207.806 203.678 207.662 203.699 207.502L204.355 203.678H202.931L203.139 202.43ZM213.898 207.166C213.898 206.398 214.026 205.694 214.282 205.054C214.549 204.403 214.917 203.848 215.386 203.39C215.856 202.931 216.416 202.574 217.066 202.318C217.717 202.062 218.426 201.934 219.194 201.934C219.824 201.934 220.373 201.998 220.842 202.126C221.322 202.254 221.717 202.382 222.026 202.51L221.018 208.19C221.008 208.243 220.997 208.307 220.986 208.382C220.986 208.446 220.986 208.515 220.986 208.59C220.986 208.888 221.072 209.102 221.242 209.23C221.413 209.347 221.637 209.406 221.914 209.406L221.418 210.526C220.842 210.526 220.4 210.387 220.09 210.11C219.792 209.832 219.642 209.39 219.642 208.782C219.344 209.294 218.965 209.731 218.506 210.094C218.058 210.456 217.53 210.638 216.922 210.638C216.528 210.638 216.149 210.558 215.786 210.398C215.424 210.238 215.098 210.008 214.81 209.71C214.533 209.411 214.309 209.048 214.138 208.622C213.978 208.184 213.898 207.699 213.898 207.166ZM220.442 203.358C220.24 203.294 220.026 203.246 219.802 203.214C219.589 203.171 219.328 203.15 219.018 203.15C218.464 203.15 217.962 203.246 217.514 203.438C217.066 203.63 216.682 203.896 216.362 204.238C216.042 204.579 215.797 204.984 215.626 205.454C215.456 205.923 215.37 206.435 215.37 206.99C215.37 207.374 215.424 207.715 215.53 208.014C215.648 208.302 215.797 208.547 215.978 208.75C216.16 208.952 216.362 209.107 216.586 209.214C216.821 209.31 217.061 209.358 217.306 209.358C217.626 209.358 217.93 209.272 218.218 209.102C218.517 208.931 218.784 208.691 219.018 208.382C219.253 208.062 219.456 207.688 219.626 207.262C219.797 206.824 219.925 206.35 220.01 205.838L220.442 203.358ZM229.191 203.934C228.882 203.72 228.535 203.534 228.151 203.374C227.778 203.214 227.351 203.134 226.871 203.134C226.359 203.134 225.964 203.219 225.687 203.39C225.42 203.56 225.287 203.784 225.287 204.062C225.287 204.19 225.308 204.307 225.351 204.414C225.404 204.52 225.49 204.632 225.607 204.75C225.735 204.856 225.906 204.974 226.119 205.102C226.332 205.23 226.604 205.379 226.935 205.55C227.671 205.923 228.21 206.302 228.551 206.686C228.903 207.059 229.079 207.534 229.079 208.11C229.079 208.536 228.994 208.91 228.823 209.23C228.652 209.539 228.412 209.8 228.103 210.014C227.804 210.216 227.452 210.371 227.047 210.478C226.642 210.584 226.204 210.638 225.735 210.638C225.084 210.638 224.508 210.558 224.007 210.398C223.516 210.227 223.09 210.008 222.727 209.742L223.543 208.558C223.831 208.792 224.167 208.99 224.551 209.15C224.946 209.31 225.383 209.39 225.863 209.39C226.407 209.39 226.828 209.288 227.127 209.086C227.436 208.883 227.591 208.632 227.591 208.334C227.591 208.195 227.564 208.067 227.511 207.95C227.468 207.822 227.383 207.694 227.255 207.566C227.127 207.438 226.951 207.31 226.727 207.182C226.514 207.043 226.242 206.888 225.911 206.718C225.506 206.515 225.17 206.323 224.903 206.142C224.647 205.95 224.439 205.752 224.279 205.55C224.13 205.347 224.023 205.134 223.959 204.91C223.895 204.675 223.863 204.419 223.863 204.142C223.863 203.822 223.938 203.528 224.087 203.262C224.236 202.984 224.444 202.75 224.711 202.558C224.978 202.366 225.298 202.216 225.671 202.11C226.044 201.992 226.455 201.934 226.903 201.934C227.5 201.934 228.034 202.014 228.503 202.174C228.983 202.323 229.404 202.504 229.767 202.718L229.191 203.934ZM239.177 209.358C239.657 209.358 240.084 209.267 240.457 209.086C240.831 208.904 241.151 208.654 241.417 208.334C241.684 208.014 241.887 207.64 242.025 207.214C242.164 206.787 242.233 206.323 242.233 205.822C242.233 205.459 242.175 205.118 242.057 204.798C241.951 204.478 241.791 204.2 241.577 203.966C241.375 203.731 241.124 203.55 240.825 203.422C240.527 203.283 240.185 203.214 239.801 203.214C239.332 203.214 238.905 203.304 238.521 203.486C238.148 203.667 237.828 203.918 237.561 204.238C237.295 204.558 237.092 204.936 236.953 205.374C236.815 205.8 236.745 206.259 236.745 206.75C236.745 207.112 236.799 207.454 236.905 207.774C237.012 208.094 237.167 208.371 237.369 208.606C237.583 208.84 237.839 209.027 238.137 209.166C238.447 209.294 238.793 209.358 239.177 209.358ZM239.129 210.638C238.532 210.638 237.993 210.547 237.513 210.366C237.044 210.174 236.644 209.912 236.313 209.582C235.983 209.251 235.727 208.856 235.545 208.398C235.364 207.928 235.273 207.422 235.273 206.878C235.273 206.184 235.38 205.539 235.593 204.942C235.807 204.334 236.111 203.811 236.505 203.374C236.911 202.926 237.396 202.574 237.961 202.318C238.527 202.062 239.156 201.934 239.849 201.934C240.436 201.934 240.969 202.03 241.449 202.222C241.929 202.403 242.335 202.659 242.665 202.99C242.996 203.32 243.252 203.72 243.433 204.19C243.615 204.648 243.705 205.15 243.705 205.694C243.705 206.387 243.599 207.038 243.385 207.646C243.172 208.243 242.863 208.766 242.457 209.214C242.063 209.651 241.583 209.998 241.017 210.254C240.452 210.51 239.823 210.638 239.129 210.638ZM250.115 203.198C249.837 203.198 249.533 203.278 249.203 203.438C248.883 203.587 248.568 203.822 248.259 204.142C247.96 204.462 247.688 204.872 247.443 205.374C247.197 205.864 247.016 206.451 246.899 207.134L246.323 210.446H244.883L246.339 202.126H247.731L247.379 204.046C247.709 203.406 248.152 202.894 248.707 202.51C249.261 202.126 249.853 201.934 250.483 201.934C250.845 201.934 251.176 201.992 251.475 202.11C251.773 202.227 252.024 202.392 252.227 202.606C252.44 202.808 252.6 203.048 252.707 203.326C252.824 203.603 252.883 203.902 252.883 204.222C252.883 204.499 252.851 204.835 252.787 205.23L251.875 210.446H250.435L251.315 205.47C251.368 205.214 251.4 205.027 251.411 204.91C251.421 204.792 251.427 204.675 251.427 204.558C251.427 204.142 251.304 203.811 251.059 203.566C250.824 203.32 250.509 203.198 250.115 203.198ZM257.889 210.638C257.355 210.638 256.87 210.552 256.433 210.382C255.995 210.2 255.617 209.95 255.297 209.63C254.987 209.299 254.742 208.899 254.561 208.43C254.39 207.96 254.305 207.432 254.305 206.846C254.305 206.184 254.411 205.555 254.625 204.958C254.838 204.36 255.137 203.838 255.521 203.39C255.915 202.942 256.39 202.59 256.945 202.334C257.499 202.067 258.118 201.934 258.801 201.934C259.259 201.934 259.67 202.003 260.033 202.142C260.395 202.28 260.699 202.462 260.945 202.686C261.201 202.91 261.393 203.171 261.521 203.47C261.659 203.768 261.729 204.078 261.729 204.398C261.729 204.995 261.585 205.48 261.297 205.854C261.019 206.227 260.667 206.526 260.241 206.75C259.814 206.963 259.345 207.112 258.833 207.198C258.321 207.272 257.835 207.31 257.377 207.31C257.089 207.31 256.801 207.299 256.513 207.278C256.235 207.246 255.99 207.214 255.777 207.182C255.862 207.886 256.107 208.424 256.513 208.798C256.929 209.171 257.467 209.358 258.129 209.358C258.662 209.358 259.137 209.288 259.553 209.15C259.969 209.011 260.321 208.872 260.609 208.734L260.737 210.014C260.417 210.163 260.011 210.307 259.521 210.446C259.041 210.574 258.497 210.638 257.889 210.638ZM258.689 203.15C258.315 203.15 257.963 203.224 257.633 203.374C257.313 203.512 257.025 203.71 256.769 203.966C256.523 204.222 256.315 204.526 256.145 204.878C255.985 205.23 255.873 205.614 255.809 206.03C256.054 206.083 256.299 206.12 256.545 206.142C256.79 206.163 257.067 206.174 257.377 206.174C258.283 206.174 258.993 206.051 259.505 205.806C260.027 205.55 260.289 205.118 260.289 204.51C260.289 204.136 260.139 203.816 259.841 203.55C259.553 203.283 259.169 203.15 258.689 203.15ZM273.927 204.558C273.927 204.152 273.804 203.827 273.559 203.582C273.324 203.326 273.015 203.198 272.631 203.198C272.343 203.198 272.033 203.272 271.703 203.422C271.383 203.571 271.068 203.806 270.759 204.126C270.46 204.435 270.188 204.83 269.943 205.31C269.708 205.79 269.532 206.366 269.415 207.038L268.823 210.446H267.383L269.463 198.606H270.903L269.975 203.87C270.305 203.283 270.737 202.814 271.271 202.462C271.804 202.11 272.375 201.934 272.983 201.934C273.345 201.934 273.676 201.992 273.975 202.11C274.273 202.227 274.524 202.392 274.727 202.606C274.94 202.808 275.1 203.048 275.207 203.326C275.324 203.603 275.383 203.902 275.383 204.222C275.383 204.499 275.351 204.835 275.287 205.23L274.375 210.446H272.935L273.815 205.47C273.868 205.214 273.9 205.027 273.911 204.91C273.921 204.792 273.927 204.675 273.927 204.558ZM280.709 209.358C281.189 209.358 281.615 209.267 281.989 209.086C282.362 208.904 282.682 208.654 282.949 208.334C283.215 208.014 283.418 207.64 283.557 207.214C283.695 206.787 283.765 206.323 283.765 205.822C283.765 205.459 283.706 205.118 283.589 204.798C283.482 204.478 283.322 204.2 283.109 203.966C282.906 203.731 282.655 203.55 282.357 203.422C282.058 203.283 281.717 203.214 281.333 203.214C280.863 203.214 280.437 203.304 280.053 203.486C279.679 203.667 279.359 203.918 279.093 204.238C278.826 204.558 278.623 204.936 278.485 205.374C278.346 205.8 278.277 206.259 278.277 206.75C278.277 207.112 278.33 207.454 278.437 207.774C278.543 208.094 278.698 208.371 278.901 208.606C279.114 208.84 279.37 209.027 279.669 209.166C279.978 209.294 280.325 209.358 280.709 209.358ZM280.661 210.638C280.063 210.638 279.525 210.547 279.045 210.366C278.575 210.174 278.175 209.912 277.845 209.582C277.514 209.251 277.258 208.856 277.077 208.398C276.895 207.928 276.805 207.422 276.805 206.878C276.805 206.184 276.911 205.539 277.125 204.942C277.338 204.334 277.642 203.811 278.037 203.374C278.442 202.926 278.927 202.574 279.493 202.318C280.058 202.062 280.687 201.934 281.381 201.934C281.967 201.934 282.501 202.03 282.981 202.222C283.461 202.403 283.866 202.659 284.197 202.99C284.527 203.32 284.783 203.72 284.965 204.19C285.146 204.648 285.237 205.15 285.237 205.694C285.237 206.387 285.13 207.038 284.917 207.646C284.703 208.243 284.394 208.766 283.989 209.214C283.594 209.651 283.114 209.998 282.549 210.254C281.983 210.51 281.354 210.638 280.661 210.638ZM288.926 210.638C288.606 210.638 288.302 210.584 288.014 210.478C287.737 210.371 287.486 210.216 287.262 210.014C287.049 209.811 286.878 209.566 286.75 209.278C286.633 208.99 286.574 208.664 286.574 208.302C286.574 208.163 286.579 208.024 286.59 207.886C286.601 207.736 286.617 207.582 286.638 207.422L287.55 202.126H288.99L288.062 207.39C288.041 207.496 288.025 207.592 288.014 207.678C288.014 207.752 288.014 207.838 288.014 207.934C288.014 208.414 288.153 208.771 288.43 209.006C288.707 209.24 289.033 209.358 289.406 209.358C289.705 209.358 290.003 209.288 290.302 209.15C290.611 209 290.894 208.792 291.15 208.526C291.406 208.259 291.63 207.934 291.822 207.55C292.025 207.155 292.169 206.707 292.254 206.206L292.974 202.126H294.414L293.358 208.19C293.347 208.243 293.337 208.307 293.326 208.382C293.326 208.446 293.326 208.515 293.326 208.59C293.326 208.888 293.411 209.102 293.582 209.23C293.753 209.347 293.977 209.406 294.254 209.406L293.758 210.526C293.182 210.526 292.739 210.387 292.43 210.11C292.131 209.832 291.982 209.39 291.982 208.782V208.638C291.203 209.971 290.185 210.638 288.926 210.638ZM296.976 204.462C296.986 204.408 296.992 204.35 296.992 204.286C297.002 204.211 297.008 204.136 297.008 204.062C297.008 203.763 296.922 203.555 296.752 203.438C296.581 203.31 296.357 203.246 296.08 203.246L296.576 202.126C297.152 202.126 297.589 202.259 297.888 202.526C298.186 202.792 298.336 203.198 298.336 203.742V204.062C298.645 203.294 299.04 202.75 299.52 202.43C300.01 202.099 300.565 201.934 301.184 201.934C301.429 201.934 301.637 201.955 301.808 201.998C301.989 202.03 302.138 202.072 302.256 202.126L301.616 203.534C301.488 203.48 301.354 203.443 301.216 203.422C301.077 203.4 300.917 203.39 300.736 203.39C300.448 203.39 300.16 203.464 299.872 203.614C299.584 203.752 299.312 203.992 299.056 204.334C298.8 204.675 298.565 205.123 298.352 205.678C298.138 206.232 297.962 206.92 297.824 207.742L297.36 210.446H295.92L296.976 204.462Z" fill="#FCFCFC" fill-opacity="0.7"/>
<path d="M46.8751 88.9896L51.5791 88.5096L54.1711 117.598L65.8831 92.3496H71.5951L74.2831 117.598L87.0991 88.6536L91.1311 90.5256L76.3471 122.446H70.6831L67.9471 97.1976L56.1871 122.446H50.5231L46.8751 88.9896ZM99.4358 123.022C97.8358 123.022 96.3798 122.766 95.0678 122.254C93.7558 121.71 92.6198 120.958 91.6598 119.998C90.7318 119.006 89.9958 117.806 89.4518 116.398C88.9398 114.99 88.6838 113.406 88.6838 111.646C88.6838 109.662 89.0038 107.774 89.6438 105.982C90.2838 104.19 91.1798 102.622 92.3318 101.278C93.5158 99.9336 94.9398 98.8776 96.6038 98.1096C98.2678 97.3096 100.124 96.9096 102.172 96.9096C103.548 96.9096 104.78 97.1176 105.868 97.5336C106.956 97.9496 107.868 98.4936 108.604 99.1656C109.372 99.8376 109.948 100.622 110.332 101.518C110.748 102.414 110.956 103.342 110.956 104.302C110.956 106.094 110.524 107.55 109.66 108.67C108.828 109.79 107.772 110.686 106.492 111.358C105.212 111.998 103.804 112.446 102.268 112.702C100.732 112.926 99.2758 113.038 97.8998 113.038C97.0358 113.038 96.1718 113.006 95.3078 112.942C94.4758 112.846 93.7398 112.75 93.0998 112.654C93.3558 114.766 94.0918 116.382 95.3078 117.502C96.5558 118.622 98.1718 119.182 100.156 119.182C101.756 119.182 103.18 118.974 104.428 118.558C105.676 118.142 106.732 117.726 107.596 117.31L107.98 121.15C107.02 121.598 105.804 122.03 104.332 122.446C102.892 122.83 101.26 123.022 99.4358 123.022ZM101.836 100.558C100.716 100.558 99.6598 100.782 98.6678 101.23C97.7078 101.646 96.8438 102.238 96.0758 103.006C95.3398 103.774 94.7158 104.686 94.2038 105.742C93.7238 106.798 93.3878 107.95 93.1958 109.198C93.9318 109.358 94.6678 109.47 95.4038 109.534C96.1398 109.598 96.9718 109.63 97.8998 109.63C100.62 109.63 102.748 109.262 104.284 108.526C105.852 107.758 106.636 106.462 106.636 104.638C106.636 103.518 106.188 102.558 105.292 101.758C104.428 100.958 103.276 100.558 101.836 100.558ZM118.76 113.806C118.696 114.254 118.648 114.638 118.616 114.958C118.584 115.278 118.568 115.566 118.568 115.822C118.568 116.942 118.888 117.806 119.528 118.414C120.168 118.99 121.048 119.278 122.168 119.278C122.712 119.278 123.256 119.214 123.8 119.086C124.344 118.958 124.84 118.782 125.288 118.558L125.72 122.062C125.144 122.35 124.472 122.574 123.704 122.734C122.936 122.926 122.104 123.022 121.208 123.022C120.248 123.022 119.336 122.878 118.472 122.59C117.64 122.334 116.904 121.934 116.264 121.39C115.656 120.846 115.16 120.158 114.776 119.326C114.424 118.462 114.248 117.47 114.248 116.35C114.248 115.902 114.264 115.502 114.296 115.15C114.328 114.766 114.376 114.35 114.44 113.902L119.144 86.9256H123.464L118.76 113.806ZM146.736 102.526C145.904 102.014 145.024 101.598 144.096 101.278C143.2 100.926 142.192 100.75 141.072 100.75C139.728 100.75 138.512 101.022 137.424 101.566C136.336 102.11 135.408 102.862 134.64 103.822C133.872 104.75 133.28 105.854 132.864 107.134C132.448 108.414 132.24 109.79 132.24 111.262C132.24 113.694 132.848 115.63 134.064 117.07C135.28 118.478 136.944 119.182 139.056 119.182C140.272 119.182 141.344 119.038 142.272 118.75C143.2 118.462 144.048 118.126 144.816 117.742L145.344 121.534C144.544 121.886 143.568 122.222 142.416 122.542C141.296 122.862 139.936 123.022 138.336 123.022C136.768 123.022 135.344 122.766 134.064 122.254C132.784 121.71 131.68 120.942 130.752 119.95C129.824 118.958 129.104 117.79 128.592 116.446C128.08 115.07 127.824 113.534 127.824 111.838C127.824 109.822 128.128 107.918 128.736 106.126C129.376 104.334 130.288 102.75 131.472 101.374C132.656 99.9976 134.08 98.9096 135.744 98.1096C137.408 97.3096 139.296 96.9096 141.408 96.9096C142.912 96.9096 144.24 97.1016 145.392 97.4856C146.544 97.8376 147.584 98.2856 148.512 98.8296L146.736 102.526ZM160.911 119.182C162.351 119.182 163.631 118.91 164.751 118.366C165.871 117.822 166.831 117.07 167.631 116.11C168.431 115.15 169.039 114.03 169.455 112.75C169.871 111.47 170.079 110.078 170.079 108.574C170.079 107.486 169.903 106.462 169.551 105.502C169.231 104.542 168.751 103.71 168.111 103.006C167.503 102.302 166.751 101.758 165.855 101.374C164.959 100.958 163.935 100.75 162.783 100.75C161.375 100.75 160.095 101.022 158.943 101.566C157.823 102.11 156.863 102.862 156.063 103.822C155.263 104.782 154.655 105.918 154.239 107.23C153.823 108.51 153.615 109.886 153.615 111.358C153.615 112.446 153.775 113.47 154.095 114.43C154.415 115.39 154.879 116.222 155.487 116.926C156.127 117.63 156.895 118.19 157.791 118.606C158.719 118.99 159.759 119.182 160.911 119.182ZM160.767 123.022C158.975 123.022 157.359 122.75 155.919 122.206C154.511 121.63 153.311 120.846 152.319 119.854C151.327 118.862 150.559 117.678 150.015 116.302C149.471 114.894 149.199 113.374 149.199 111.742C149.199 109.662 149.519 107.726 150.159 105.934C150.799 104.11 151.711 102.542 152.895 101.23C154.111 99.8856 155.567 98.8296 157.263 98.0616C158.959 97.2936 160.847 96.9096 162.927 96.9096C164.687 96.9096 166.287 97.1976 167.727 97.7736C169.167 98.3176 170.383 99.0856 171.375 100.078C172.367 101.07 173.135 102.27 173.679 103.678C174.223 105.054 174.495 106.558 174.495 108.19C174.495 110.27 174.175 112.222 173.535 114.046C172.895 115.838 171.967 117.406 170.751 118.75C169.567 120.062 168.127 121.102 166.431 121.87C164.735 122.638 162.847 123.022 160.767 123.022ZM209.372 100.702C208.572 100.702 207.708 100.926 206.78 101.374C205.852 101.822 204.956 102.51 204.092 103.438C203.26 104.366 202.492 105.55 201.788 106.99C201.116 108.43 200.604 110.142 200.252 112.126L198.428 122.446H194.108L196.844 107.518C197.004 106.75 197.1 106.19 197.132 105.838C197.164 105.486 197.18 105.134 197.18 104.782C197.18 103.534 196.812 102.542 196.076 101.806C195.372 101.07 194.444 100.702 193.292 100.702C192.46 100.702 191.58 100.942 190.652 101.422C189.724 101.87 188.828 102.574 187.964 103.534C187.1 104.494 186.316 105.726 185.612 107.23C184.94 108.702 184.428 110.462 184.076 112.51L182.348 122.446H178.028L182.396 97.4856H186.572L185.516 103.246C186.476 101.326 187.772 99.7896 189.404 98.6376C191.036 97.4856 192.748 96.9096 194.54 96.9096C195.532 96.9096 196.428 97.0696 197.228 97.3896C198.028 97.7096 198.716 98.1576 199.292 98.7336C199.9 99.2776 200.38 99.9496 200.732 100.75C201.084 101.518 201.308 102.35 201.404 103.246C202.492 101.23 203.82 99.6776 205.388 98.5896C206.988 97.4696 208.716 96.9096 210.572 96.9096C211.628 96.9096 212.588 97.0856 213.452 97.4376C214.316 97.7896 215.052 98.2856 215.66 98.9256C216.268 99.5336 216.732 100.254 217.052 101.086C217.404 101.918 217.58 102.814 217.58 103.774C217.58 104.606 217.484 105.614 217.292 106.798L214.508 122.446H210.188L212.924 107.518C213.084 106.75 213.18 106.19 213.212 105.838C213.244 105.486 213.26 105.134 213.26 104.782C213.26 103.534 212.892 102.542 212.156 101.806C211.452 101.07 210.524 100.702 209.372 100.702ZM232.608 123.022C231.008 123.022 229.552 122.766 228.24 122.254C226.928 121.71 225.792 120.958 224.832 119.998C223.904 119.006 223.168 117.806 222.624 116.398C222.112 114.99 221.856 113.406 221.856 111.646C221.856 109.662 222.176 107.774 222.816 105.982C223.456 104.19 224.352 102.622 225.504 101.278C226.688 99.9336 228.112 98.8776 229.776 98.1096C231.44 97.3096 233.296 96.9096 235.344 96.9096C236.72 96.9096 237.952 97.1176 239.04 97.5336C240.128 97.9496 241.04 98.4936 241.776 99.1656C242.544 99.8376 243.12 100.622 243.504 101.518C243.92 102.414 244.128 103.342 244.128 104.302C244.128 106.094 243.696 107.55 242.832 108.67C242 109.79 240.944 110.686 239.664 111.358C238.384 111.998 236.976 112.446 235.44 112.702C233.904 112.926 232.448 113.038 231.072 113.038C230.208 113.038 229.344 113.006 228.48 112.942C227.648 112.846 226.912 112.75 226.272 112.654C226.528 114.766 227.264 116.382 228.48 117.502C229.728 118.622 231.344 119.182 233.328 119.182C234.928 119.182 236.352 118.974 237.6 118.558C238.848 118.142 239.904 117.726 240.768 117.31L241.152 121.15C240.192 121.598 238.976 122.03 237.504 122.446C236.064 122.83 234.432 123.022 232.608 123.022ZM235.008 100.558C233.888 100.558 232.832 100.782 231.84 101.23C230.88 101.646 230.016 102.238 229.248 103.006C228.512 103.774 227.888 104.686 227.376 105.742C226.896 106.798 226.56 107.95 226.368 109.198C227.104 109.358 227.84 109.47 228.576 109.534C229.312 109.598 230.144 109.63 231.072 109.63C233.792 109.63 235.92 109.262 237.456 108.526C239.024 107.758 239.808 106.462 239.808 104.638C239.808 103.518 239.36 102.558 238.464 101.758C237.6 100.958 236.448 100.558 235.008 100.558ZM21.6494 155.398H26.0654L28.3694 147.526H31.6814L30.2894 155.398H37.2014L36.5774 159.142H29.6174L27.6014 170.806C27.4734 171.446 27.4094 172.054 27.4094 172.63C27.4094 173.75 27.7294 174.63 28.3694 175.27C29.0414 175.878 29.9374 176.182 31.0574 176.182C31.9854 176.182 32.7534 176.054 33.3614 175.798C34.0014 175.51 34.5934 175.222 35.1374 174.934L35.6654 178.678C35.0574 179.03 34.2894 179.334 33.3614 179.59C32.4654 179.878 31.4574 180.022 30.3374 180.022C29.4414 180.022 28.5614 179.878 27.6974 179.59C26.8334 179.334 26.0654 178.934 25.3934 178.39C24.7214 177.814 24.1774 177.078 23.7614 176.182C23.3454 175.286 23.1374 174.214 23.1374 172.966C23.1374 172.614 23.1534 172.262 23.1854 171.91C23.2174 171.526 23.2654 171.094 23.3294 170.614L25.2974 159.142H21.0254L21.6494 155.398ZM50.7787 176.182C52.2186 176.182 53.4987 175.91 54.6187 175.366C55.7387 174.822 56.6987 174.07 57.4987 173.11C58.2987 172.15 58.9067 171.03 59.3227 169.75C59.7387 168.47 59.9467 167.078 59.9467 165.574C59.9467 164.486 59.7707 163.462 59.4187 162.502C59.0987 161.542 58.6187 160.71 57.9787 160.006C57.3707 159.302 56.6187 158.758 55.7226 158.374C54.8266 157.958 53.8026 157.75 52.6507 157.75C51.2427 157.75 49.9627 158.022 48.8106 158.566C47.6906 159.11 46.7306 159.862 45.9306 160.822C45.1306 161.782 44.5226 162.918 44.1066 164.23C43.6906 165.51 43.4826 166.886 43.4826 168.358C43.4826 169.446 43.6426 170.47 43.9627 171.43C44.2826 172.39 44.7466 173.222 45.3547 173.926C45.9946 174.63 46.7626 175.19 47.6586 175.606C48.5866 175.99 49.6266 176.182 50.7787 176.182ZM50.6347 180.022C48.8427 180.022 47.2266 179.75 45.7866 179.206C44.3786 178.63 43.1786 177.846 42.1866 176.854C41.1946 175.862 40.4266 174.678 39.8826 173.302C39.3386 171.894 39.0666 170.374 39.0666 168.742C39.0666 166.662 39.3866 164.726 40.0266 162.934C40.6666 161.11 41.5786 159.542 42.7626 158.23C43.9786 156.886 45.4346 155.83 47.1307 155.062C48.8267 154.294 50.7147 153.91 52.7947 153.91C54.5547 153.91 56.1547 154.198 57.5946 154.774C59.0347 155.318 60.2507 156.086 61.2427 157.078C62.2347 158.07 63.0027 159.27 63.5467 160.678C64.0907 162.054 64.3626 163.558 64.3626 165.19C64.3626 167.27 64.0427 169.222 63.4027 171.046C62.7627 172.838 61.8347 174.406 60.6187 175.75C59.4347 177.062 57.9947 178.102 56.2987 178.87C54.6027 179.638 52.7147 180.022 50.6347 180.022ZM93.9974 176.182C95.4374 176.182 96.7174 175.91 97.8374 175.366C98.9574 174.822 99.9174 174.07 100.717 173.11C101.517 172.15 102.125 171.03 102.541 169.75C102.957 168.47 103.165 167.078 103.165 165.574C103.165 164.486 102.989 163.462 102.637 162.502C102.317 161.542 101.837 160.71 101.197 160.006C100.589 159.302 99.8374 158.758 98.9414 158.374C98.0454 157.958 97.0214 157.75 95.8694 157.75C94.4614 157.75 93.1814 158.022 92.0294 158.566C90.9094 159.11 89.9494 159.862 89.1494 160.822C88.3494 161.782 87.7414 162.918 87.3254 164.23C86.9094 165.51 86.7014 166.886 86.7014 168.358C86.7014 169.446 86.8614 170.47 87.1814 171.43C87.5014 172.39 87.9654 173.222 88.5734 173.926C89.2134 174.63 89.9814 175.19 90.8774 175.606C91.8054 175.99 92.8454 176.182 93.9974 176.182ZM93.8534 180.022C92.0614 180.022 90.4454 179.75 89.0054 179.206C87.5974 178.63 86.3974 177.846 85.4054 176.854C84.4134 175.862 83.6454 174.678 83.1014 173.302C82.5574 171.894 82.2854 170.374 82.2854 168.742C82.2854 166.662 82.6054 164.726 83.2454 162.934C83.8854 161.11 84.7974 159.542 85.9814 158.23C87.1974 156.886 88.6534 155.83 90.3494 155.062C92.0454 154.294 93.9334 153.91 96.0134 153.91C97.7734 153.91 99.3734 154.198 100.813 154.774C102.253 155.318 103.469 156.086 104.461 157.078C105.453 158.07 106.221 159.27 106.765 160.678C107.309 162.054 107.581 163.558 107.581 165.19C107.581 167.27 107.261 169.222 106.621 171.046C105.981 172.838 105.053 174.406 103.837 175.75C102.653 177.062 101.213 178.102 99.5174 178.87C97.8214 179.638 95.9334 180.022 93.8534 180.022ZM118.65 180.022C117.69 180.022 116.778 179.862 115.914 179.542C115.082 179.222 114.33 178.758 113.658 178.15C113.018 177.542 112.506 176.806 112.122 175.942C111.77 175.078 111.594 174.102 111.594 173.014C111.594 172.598 111.61 172.182 111.642 171.766C111.674 171.318 111.722 170.854 111.786 170.374L114.522 154.486H118.842L116.058 170.278C115.994 170.598 115.946 170.886 115.914 171.142C115.914 171.366 115.914 171.622 115.914 171.91C115.914 173.35 116.33 174.422 117.162 175.126C117.994 175.83 118.97 176.182 120.09 176.182C120.986 176.182 121.882 175.974 122.778 175.558C123.706 175.11 124.554 174.486 125.322 173.686C126.09 172.886 126.762 171.91 127.338 170.758C127.946 169.574 128.378 168.23 128.634 166.726L130.794 154.486H135.114L131.946 172.678C131.914 172.838 131.882 173.03 131.85 173.254C131.85 173.446 131.85 173.654 131.85 173.878C131.85 174.774 132.106 175.414 132.618 175.798C133.13 176.15 133.802 176.326 134.634 176.326L133.146 179.686C131.418 179.686 130.09 179.27 129.162 178.438C128.266 177.606 127.818 176.278 127.818 174.454V174.022C125.482 178.022 122.426 180.022 118.65 180.022ZM142.798 161.494C142.83 161.334 142.846 161.158 142.846 160.966C142.878 160.742 142.894 160.518 142.894 160.294C142.894 159.398 142.638 158.774 142.126 158.422C141.614 158.038 140.942 157.846 140.11 157.846L141.598 154.486C143.326 154.486 144.638 154.886 145.534 155.686C146.43 156.486 146.878 157.702 146.878 159.334V160.294C147.806 157.99 148.99 156.358 150.43 155.398C151.902 154.406 153.566 153.91 155.422 153.91C156.158 153.91 156.782 153.974 157.294 154.102C157.838 154.198 158.286 154.326 158.638 154.486L156.718 158.71C156.334 158.55 155.934 158.438 155.518 158.374C155.102 158.31 154.622 158.278 154.078 158.278C153.214 158.278 152.35 158.502 151.486 158.95C150.622 159.366 149.806 160.086 149.038 161.11C148.27 162.134 147.566 163.478 146.926 165.142C146.286 166.806 145.758 168.87 145.342 171.334L143.95 179.446H139.63L142.798 161.494ZM190.226 159.91C189.298 159.27 188.258 158.71 187.106 158.23C185.986 157.75 184.706 157.51 183.266 157.51C181.73 157.51 180.546 157.766 179.714 158.278C178.914 158.79 178.514 159.462 178.514 160.294C178.514 160.678 178.578 161.03 178.706 161.35C178.866 161.67 179.122 162.006 179.474 162.358C179.858 162.678 180.37 163.03 181.01 163.414C181.65 163.798 182.466 164.246 183.458 164.758C185.666 165.878 187.282 167.014 188.306 168.166C189.362 169.286 189.89 170.71 189.89 172.438C189.89 173.718 189.634 174.838 189.122 175.798C188.61 176.726 187.89 177.51 186.962 178.15C186.066 178.758 185.01 179.222 183.794 179.542C182.578 179.862 181.266 180.022 179.858 180.022C177.906 180.022 176.178 179.782 174.674 179.302C173.202 178.79 171.922 178.134 170.834 177.334L173.282 173.782C174.146 174.486 175.154 175.078 176.306 175.558C177.49 176.038 178.802 176.278 180.242 176.278C181.874 176.278 183.138 175.974 184.034 175.366C184.962 174.758 185.426 174.006 185.426 173.11C185.426 172.694 185.346 172.31 185.186 171.958C185.058 171.574 184.802 171.19 184.418 170.806C184.034 170.422 183.506 170.038 182.834 169.654C182.194 169.238 181.378 168.774 180.386 168.262C179.17 167.654 178.162 167.078 177.362 166.534C176.594 165.958 175.97 165.366 175.49 164.758C175.042 164.15 174.722 163.51 174.53 162.838C174.338 162.134 174.242 161.366 174.242 160.534C174.242 159.574 174.466 158.694 174.914 157.894C175.362 157.062 175.986 156.358 176.786 155.782C177.586 155.206 178.546 154.758 179.666 154.438C180.786 154.086 182.018 153.91 183.362 153.91C185.154 153.91 186.754 154.15 188.162 154.63C189.602 155.078 190.866 155.622 191.954 156.262L190.226 159.91ZM194.946 155.398H199.362L201.666 147.526H204.978L203.586 155.398H210.498L209.874 159.142H202.914L200.898 170.806C200.77 171.446 200.706 172.054 200.706 172.63C200.706 173.75 201.026 174.63 201.666 175.27C202.338 175.878 203.234 176.182 204.354 176.182C205.282 176.182 206.05 176.054 206.658 175.798C207.298 175.51 207.89 175.222 208.434 174.934L208.962 178.678C208.354 179.03 207.586 179.334 206.658 179.59C205.762 179.878 204.754 180.022 203.634 180.022C202.738 180.022 201.858 179.878 200.994 179.59C200.13 179.334 199.362 178.934 198.69 178.39C198.018 177.814 197.474 177.078 197.058 176.182C196.642 175.286 196.434 174.214 196.434 172.966C196.434 172.614 196.45 172.262 196.482 171.91C196.514 171.526 196.562 171.094 196.626 170.614L198.594 159.142H194.322L194.946 155.398ZM224.076 176.182C225.516 176.182 226.796 175.91 227.916 175.366C229.036 174.822 229.996 174.07 230.796 173.11C231.596 172.15 232.204 171.03 232.62 169.75C233.036 168.47 233.244 167.078 233.244 165.574C233.244 164.486 233.068 163.462 232.716 162.502C232.396 161.542 231.916 160.71 231.276 160.006C230.668 159.302 229.916 158.758 229.02 158.374C228.124 157.958 227.1 157.75 225.948 157.75C224.54 157.75 223.26 158.022 222.108 158.566C220.988 159.11 220.028 159.862 219.228 160.822C218.428 161.782 217.82 162.918 217.404 164.23C216.988 165.51 216.78 166.886 216.78 168.358C216.78 169.446 216.94 170.47 217.26 171.43C217.58 172.39 218.044 173.222 218.652 173.926C219.292 174.63 220.06 175.19 220.956 175.606C221.884 175.99 222.924 176.182 224.076 176.182ZM223.932 180.022C222.14 180.022 220.524 179.75 219.084 179.206C217.676 178.63 216.476 177.846 215.484 176.854C214.492 175.862 213.724 174.678 213.18 173.302C212.636 171.894 212.364 170.374 212.364 168.742C212.364 166.662 212.684 164.726 213.324 162.934C213.964 161.11 214.876 159.542 216.06 158.23C217.276 156.886 218.732 155.83 220.428 155.062C222.124 154.294 224.012 153.91 226.092 153.91C227.852 153.91 229.452 154.198 230.892 154.774C232.332 155.318 233.548 156.086 234.54 157.078C235.532 158.07 236.3 159.27 236.844 160.678C237.388 162.054 237.66 163.558 237.66 165.19C237.66 167.27 237.34 169.222 236.7 171.046C236.06 172.838 235.132 174.406 233.916 175.75C232.732 177.062 231.292 178.102 229.596 178.87C227.9 179.638 226.012 180.022 223.932 180.022ZM245.08 161.494C245.112 161.334 245.128 161.158 245.128 160.966C245.16 160.742 245.176 160.518 245.176 160.294C245.176 159.398 244.92 158.774 244.408 158.422C243.896 158.038 243.224 157.846 242.392 157.846L243.88 154.486C245.608 154.486 246.92 154.886 247.816 155.686C248.712 156.486 249.16 157.702 249.16 159.334V160.294C250.088 157.99 251.272 156.358 252.712 155.398C254.184 154.406 255.848 153.91 257.704 153.91C258.44 153.91 259.064 153.974 259.576 154.102C260.12 154.198 260.568 154.326 260.92 154.486L259 158.71C258.616 158.55 258.216 158.438 257.8 158.374C257.384 158.31 256.904 158.278 256.36 158.278C255.496 158.278 254.632 158.502 253.768 158.95C252.904 159.366 252.088 160.086 251.32 161.11C250.552 162.134 249.848 163.478 249.208 165.142C248.568 166.806 248.04 168.87 247.624 171.334L246.232 179.446H241.912L245.08 161.494ZM270.928 180.022C269.328 180.022 267.872 179.766 266.56 179.254C265.248 178.71 264.112 177.958 263.152 176.998C262.224 176.006 261.488 174.806 260.944 173.398C260.432 171.99 260.176 170.406 260.176 168.646C260.176 166.662 260.496 164.774 261.136 162.982C261.776 161.19 262.672 159.622 263.824 158.278C265.008 156.934 266.432 155.878 268.096 155.11C269.76 154.31 271.616 153.91 273.664 153.91C275.04 153.91 276.272 154.118 277.36 154.534C278.448 154.95 279.36 155.494 280.096 156.166C280.864 156.838 281.44 157.622 281.824 158.518C282.24 159.414 282.448 160.342 282.448 161.302C282.448 163.094 282.016 164.55 281.152 165.67C280.32 166.79 279.264 167.686 277.984 168.358C276.704 168.998 275.296 169.446 273.76 169.702C272.224 169.926 270.768 170.038 269.392 170.038C268.528 170.038 267.664 170.006 266.8 169.942C265.968 169.846 265.232 169.75 264.592 169.654C264.848 171.766 265.584 173.382 266.8 174.502C268.048 175.622 269.664 176.182 271.648 176.182C273.248 176.182 274.672 175.974 275.92 175.558C277.168 175.142 278.224 174.726 279.088 174.31L279.472 178.15C278.512 178.598 277.296 179.03 275.824 179.446C274.384 179.83 272.752 180.022 270.928 180.022ZM273.328 157.558C272.208 157.558 271.152 157.782 270.16 158.23C269.2 158.646 268.336 159.238 267.568 160.006C266.832 160.774 266.208 161.686 265.696 162.742C265.216 163.798 264.88 164.95 264.688 166.198C265.424 166.358 266.16 166.47 266.896 166.534C267.632 166.598 268.464 166.63 269.392 166.63C272.112 166.63 274.24 166.262 275.776 165.526C277.344 164.758 278.128 163.462 278.128 161.638C278.128 160.518 277.68 159.558 276.784 158.758C275.92 157.958 274.768 157.558 273.328 157.558Z" fill="white"/>
<path fill-rule="evenodd" clip-rule="evenodd" d="M159.853 4.80666C160.095 2.64506 158.563 0.69317 156.401 0.451201C154.24 0.193099 152.288 1.74171 152.046 3.9033C151.755 6.3714 152.159 9.32343 152.675 12.3561C154.111 12.7917 155.498 13.4208 156.788 14.1628C158.176 10.8882 159.531 7.64577 159.853 4.80666ZM175.033 14.2919C174.178 12.2916 171.855 11.3882 169.855 12.2432C167.225 13.3885 164.499 15.6308 161.757 17.9376C162.789 18.9538 163.757 20.0992 164.58 21.3413C167.693 20.9541 170.678 20.4863 172.984 19.4862C174.985 18.5989 175.904 16.276 175.033 14.2919ZM168.403 3.74199C166.661 2.45148 164.193 2.80637 162.902 4.54856C160.934 7.19409 159.611 11.1463 158.176 15.0017C158.66 15.3243 159.111 15.6469 159.547 15.9857C159.87 16.2438 160.208 16.518 160.547 16.7922C163.838 14.308 167.258 11.8883 169.226 9.24277C170.516 7.50059 170.145 5.0325 168.403 3.74199Z" fill="white"/>
<path d="M160.918 35.3271C159.708 36.6337 158.418 37.8436 157.047 39.0212C155.127 40.6827 153.175 42.2958 151.191 43.8444C149.062 42.5378 147.529 41.8764 147.271 42.2152C147.045 42.5217 147.932 43.6509 149.529 45.1188C144.174 49.1032 138.512 52.6199 132.43 55.5074C131.478 55.9591 130.478 56.2817 129.494 56.6366C129.236 56.7334 128.962 56.7334 128.849 56.7495C127.3 56.9269 126.833 56.5075 126.897 55.088C127.091 50.668 128.462 46.5222 129.881 42.3926C130.269 41.2634 130.672 40.1342 131.091 39.005C133.237 40.3117 134.769 40.9892 135.027 40.6504C135.302 40.2794 134.011 38.7953 131.849 36.9402C133.398 32.9397 135.124 29.0036 137.157 25.2289C141.222 28.2454 144.835 30.2296 145.238 29.6811C145.642 29.1327 142.657 26.2129 138.544 23.1641L138.366 23.035C139.076 21.8252 139.818 20.6153 140.609 19.4377C141.593 17.9537 142.803 16.5986 143.996 15.2759C145.593 13.5175 147.658 12.9207 149.965 13.4369C157.353 15.0823 162.483 19.3248 164.903 26.6C165.386 28.0841 164.951 29.5359 164.193 30.8748C163.677 31.7782 163.112 32.6332 162.483 33.4397C158.579 30.5845 155.191 28.7455 154.804 29.2617C154.433 29.7779 157.127 32.4396 160.918 35.3271Z" fill="white"/>
</svg>
